<svg version="1.1" xmlns="http://www.w3.org/2000/svg" xmlns:xlink="http://www.w3.org/1999/xlink" preserveAspectRatio="xMidYMid meet" viewBox="0 0 100 100" id="el_MNYGJ9SOy"><style>@-webkit-keyframes kf_el_Co-Y7SAdu0_an_lzpP1rCs4{0%{opacity: 0;}100%{opacity: 0;}}@keyframes kf_el_Co-Y7SAdu0_an_lzpP1rCs4{0%{opacity: 0;}100%{opacity: 0;}}@-webkit-keyframes kf_el_qQlrXaa78jm_an_Ndfn07hnW{0%{opacity: 0;}37.78%{opacity: 0;}42.22%{opacity: 1;}100%{opacity: 1;}}@keyframes kf_el_qQlrXaa78jm_an_Ndfn07hnW{0%{opacity: 0;}37.78%{opacity: 0;}42.22%{opacity: 1;}100%{opacity: 1;}}@-webkit-keyframes kf_el_qQlrXaa78jm_an_-bWL_qVGC{0%{-webkit-transform: translate(13.949999809265137px, 72.73999786376953px) translate(-13.949999809265137px, -72.73999786376953px) translate(20px, -6px);transform: translate(13.949999809265137px, 72.73999786376953px) translate(-13.949999809265137px, -72.73999786376953px) translate(20px, -6px);}40%{-webkit-transform: translate(13.949999809265137px, 72.73999786376953px) translate(-13.949999809265137px, -72.73999786376953px) translate(20px, -20px);transform: translate(13.949999809265137px, 72.73999786376953px) translate(-13.949999809265137px, -72.73999786376953px) translate(20px, -20px);}60%{-webkit-transform: translate(13.949999809265137px, 72.73999786376953px) translate(-13.949999809265137px, -72.73999786376953px) translate(0px, 0px);transform: translate(13.949999809265137px, 72.73999786376953px) translate(-13.949999809265137px, -72.73999786376953px) translate(0px, 0px);}100%{-webkit-transform: translate(13.949999809265137px, 72.73999786376953px) translate(-13.949999809265137px, -72.73999786376953px) translate(0px, 0px);transform: translate(13.949999809265137px, 72.73999786376953px) translate(-13.949999809265137px, -72.73999786376953px) translate(0px, 0px);}}@keyframes kf_el_qQlrXaa78jm_an_-bWL_qVGC{0%{-webkit-transform: translate(13.949999809265137px, 72.73999786376953px) translate(-13.949999809265137px, -72.73999786376953px) translate(20px, -6px);transform: translate(13.949999809265137px, 72.73999786376953px) translate(-13.949999809265137px, -72.73999786376953px) translate(20px, -6px);}40%{-webkit-transform: translate(13.949999809265137px, 72.73999786376953px) translate(-13.949999809265137px, -72.73999786376953px) translate(20px, -20px);transform: translate(13.949999809265137px, 72.73999786376953px) translate(-13.949999809265137px, -72.73999786376953px) translate(20px, -20px);}60%{-webkit-transform: translate(13.949999809265137px, 72.73999786376953px) translate(-13.949999809265137px, -72.73999786376953px) translate(0px, 0px);transform: translate(13.949999809265137px, 72.73999786376953px) translate(-13.949999809265137px, -72.73999786376953px) translate(0px, 0px);}100%{-webkit-transform: translate(13.949999809265137px, 72.73999786376953px) translate(-13.949999809265137px, -72.73999786376953px) translate(0px, 0px);transform: translate(13.949999809265137px, 72.73999786376953px) translate(-13.949999809265137px, -72.73999786376953px) translate(0px, 0px);}}@-webkit-keyframes kf_el_iYiqoqcsTrQ_an_eD0ZmmPD4{77.78%{-webkit-transform: translate(28.270000457763672px, 30.007083892822266px) translate(-28.270000457763672px, -30.007083892822266px) translate(-3px, -3px);transform: translate(28.270000457763672px, 30.007083892822266px) translate(-28.270000457763672px, -30.007083892822266px) translate(-3px, -3px);}84.44%{-webkit-transform: translate(28.270000457763672px, 30.007083892822266px) translate(-28.270000457763672px, -30.007083892822266px) translate(0px, 0px);transform: translate(28.270000457763672px, 30.007083892822266px) translate(-28.270000457763672px, -30.007083892822266px) translate(0px, 0px);}0%{-webkit-transform: translate(28.270000457763672px, 30.007083892822266px) translate(-28.270000457763672px, -30.007083892822266px) translate(-3px, -3px);transform: translate(28.270000457763672px, 30.007083892822266px) translate(-28.270000457763672px, -30.007083892822266px) translate(-3px, -3px);}100%{-webkit-transform: translate(28.270000457763672px, 30.007083892822266px) translate(-28.270000457763672px, -30.007083892822266px) translate(0px, 0px);transform: translate(28.270000457763672px, 30.007083892822266px) translate(-28.270000457763672px, -30.007083892822266px) translate(0px, 0px);}}@keyframes kf_el_iYiqoqcsTrQ_an_eD0ZmmPD4{77.78%{-webkit-transform: translate(28.270000457763672px, 30.007083892822266px) translate(-28.270000457763672px, -30.007083892822266px) translate(-3px, -3px);transform: translate(28.270000457763672px, 30.007083892822266px) translate(-28.270000457763672px, -30.007083892822266px) translate(-3px, -3px);}84.44%{-webkit-transform: translate(28.270000457763672px, 30.007083892822266px) translate(-28.270000457763672px, -30.007083892822266px) translate(0px, 0px);transform: translate(28.270000457763672px, 30.007083892822266px) translate(-28.270000457763672px, -30.007083892822266px) translate(0px, 0px);}0%{-webkit-transform: translate(28.270000457763672px, 30.007083892822266px) translate(-28.270000457763672px, -30.007083892822266px) translate(-3px, -3px);transform: translate(28.270000457763672px, 30.007083892822266px) translate(-28.270000457763672px, -30.007083892822266px) translate(-3px, -3px);}100%{-webkit-transform: translate(28.270000457763672px, 30.007083892822266px) translate(-28.270000457763672px, -30.007083892822266px) translate(0px, 0px);transform: translate(28.270000457763672px, 30.007083892822266px) translate(-28.270000457763672px, -30.007083892822266px) translate(0px, 0px);}}@-webkit-keyframes kf_el_iYiqoqcsTrQ_an_vep4cFmli{0%{opacity: 0;}75.56%{opacity: 0;}93.33%{opacity: 0.8;}100%{opacity: 0.8;}}@keyframes kf_el_iYiqoqcsTrQ_an_vep4cFmli{0%{opacity: 0;}75.56%{opacity: 0;}93.33%{opacity: 0.8;}100%{opacity: 0.8;}}@-webkit-keyframes kf_el_qCqiqXGx7F_an_4kf9Y8gk1{53.33%{opacity: 0;}62.22%{opacity: 0.2;}71.11%{opacity: 1;}0%{opacity: 0;}100%{opacity: 1;}}@keyframes kf_el_qCqiqXGx7F_an_4kf9Y8gk1{53.33%{opacity: 0;}62.22%{opacity: 0.2;}71.11%{opacity: 1;}0%{opacity: 0;}100%{opacity: 1;}}@-webkit-keyframes kf_el_qCqiqXGx7F_an_tKi2Gc77L{60%{-webkit-transform: translate(27.93000030517578px, 24.59000015258789px) translate(-27.93000030517578px, -24.59000015258789px) translate(0px, 40px);transform: translate(27.93000030517578px, 24.59000015258789px) translate(-27.93000030517578px, -24.59000015258789px) translate(0px, 40px);}71.11%{-webkit-transform: translate(27.93000030517578px, 24.59000015258789px) translate(-27.93000030517578px, -24.59000015258789px) translate(0px, -3px);transform: translate(27.93000030517578px, 24.59000015258789px) translate(-27.93000030517578px, -24.59000015258789px) translate(0px, -3px);}77.78%{-webkit-transform: translate(27.93000030517578px, 24.59000015258789px) translate(-27.93000030517578px, -24.59000015258789px) translate(0px, 0px);transform: translate(27.93000030517578px, 24.59000015258789px) translate(-27.93000030517578px, -24.59000015258789px) translate(0px, 0px);}0%{-webkit-transform: translate(27.93000030517578px, 24.59000015258789px) translate(-27.93000030517578px, -24.59000015258789px) translate(0px, 40px);transform: translate(27.93000030517578px, 24.59000015258789px) translate(-27.93000030517578px, -24.59000015258789px) translate(0px, 40px);}100%{-webkit-transform: translate(27.93000030517578px, 24.59000015258789px) translate(-27.93000030517578px, -24.59000015258789px) translate(0px, 0px);transform: translate(27.93000030517578px, 24.59000015258789px) translate(-27.93000030517578px, -24.59000015258789px) translate(0px, 0px);}}@keyframes kf_el_qCqiqXGx7F_an_tKi2Gc77L{60%{-webkit-transform: translate(27.93000030517578px, 24.59000015258789px) translate(-27.93000030517578px, -24.59000015258789px) translate(0px, 40px);transform: translate(27.93000030517578px, 24.59000015258789px) translate(-27.93000030517578px, -24.59000015258789px) translate(0px, 40px);}71.11%{-webkit-transform: translate(27.93000030517578px, 24.59000015258789px) translate(-27.93000030517578px, -24.59000015258789px) translate(0px, -3px);transform: translate(27.93000030517578px, 24.59000015258789px) translate(-27.93000030517578px, -24.59000015258789px) translate(0px, -3px);}77.78%{-webkit-transform: translate(27.93000030517578px, 24.59000015258789px) translate(-27.93000030517578px, -24.59000015258789px) translate(0px, 0px);transform: translate(27.93000030517578px, 24.59000015258789px) translate(-27.93000030517578px, -24.59000015258789px) translate(0px, 0px);}0%{-webkit-transform: translate(27.93000030517578px, 24.59000015258789px) translate(-27.93000030517578px, -24.59000015258789px) translate(0px, 40px);transform: translate(27.93000030517578px, 24.59000015258789px) translate(-27.93000030517578px, -24.59000015258789px) translate(0px, 40px);}100%{-webkit-transform: translate(27.93000030517578px, 24.59000015258789px) translate(-27.93000030517578px, -24.59000015258789px) translate(0px, 0px);transform: translate(27.93000030517578px, 24.59000015258789px) translate(-27.93000030517578px, -24.59000015258789px) translate(0px, 0px);}}@-webkit-keyframes kf_el_J5zIKqY7FA_an_HGMShmzEk{15.56%{-webkit-transform: translate(50.02999973297119px, 48.829999923706055px) scale(0, 0) translate(-50.02999973297119px, -48.829999923706055px);transform: translate(50.02999973297119px, 48.829999923706055px) scale(0, 0) translate(-50.02999973297119px, -48.829999923706055px);}31.11%{-webkit-transform: translate(50.02999973297119px, 48.829999923706055px) scale(1.05, 1.05) translate(-50.02999973297119px, -48.829999923706055px);transform: translate(50.02999973297119px, 48.829999923706055px) scale(1.05, 1.05) translate(-50.02999973297119px, -48.829999923706055px);}37.78%{-webkit-transform: translate(50.02999973297119px, 48.829999923706055px) scale(0.95, 0.95) translate(-50.02999973297119px, -48.829999923706055px);transform: translate(50.02999973297119px, 48.829999923706055px) scale(0.95, 0.95) translate(-50.02999973297119px, -48.829999923706055px);}44.44%{-webkit-transform: translate(50.02999973297119px, 48.829999923706055px) scale(1, 1) translate(-50.02999973297119px, -48.829999923706055px);transform: translate(50.02999973297119px, 48.829999923706055px) scale(1, 1) translate(-50.02999973297119px, -48.829999923706055px);}0%{-webkit-transform: translate(50.02999973297119px, 48.829999923706055px) scale(0, 0) translate(-50.02999973297119px, -48.829999923706055px);transform: translate(50.02999973297119px, 48.829999923706055px) scale(0, 0) translate(-50.02999973297119px, -48.829999923706055px);}100%{-webkit-transform: translate(50.02999973297119px, 48.829999923706055px) scale(1, 1) translate(-50.02999973297119px, -48.829999923706055px);transform: translate(50.02999973297119px, 48.829999923706055px) scale(1, 1) translate(-50.02999973297119px, -48.829999923706055px);}}@keyframes kf_el_J5zIKqY7FA_an_HGMShmzEk{15.56%{-webkit-transform: translate(50.02999973297119px, 48.829999923706055px) scale(0, 0) translate(-50.02999973297119px, -48.829999923706055px);transform: translate(50.02999973297119px, 48.829999923706055px) scale(0, 0) translate(-50.02999973297119px, -48.829999923706055px);}31.11%{-webkit-transform: translate(50.02999973297119px, 48.829999923706055px) scale(1.05, 1.05) translate(-50.02999973297119px, -48.829999923706055px);transform: translate(50.02999973297119px, 48.829999923706055px) scale(1.05, 1.05) translate(-50.02999973297119px, -48.829999923706055px);}37.78%{-webkit-transform: translate(50.02999973297119px, 48.829999923706055px) scale(0.95, 0.95) translate(-50.02999973297119px, -48.829999923706055px);transform: translate(50.02999973297119px, 48.829999923706055px) scale(0.95, 0.95) translate(-50.02999973297119px, -48.829999923706055px);}44.44%{-webkit-transform: translate(50.02999973297119px, 48.829999923706055px) scale(1, 1) translate(-50.02999973297119px, -48.829999923706055px);transform: translate(50.02999973297119px, 48.829999923706055px) scale(1, 1) translate(-50.02999973297119px, -48.829999923706055px);}0%{-webkit-transform: translate(50.02999973297119px, 48.829999923706055px) scale(0, 0) translate(-50.02999973297119px, -48.829999923706055px);transform: translate(50.02999973297119px, 48.829999923706055px) scale(0, 0) translate(-50.02999973297119px, -48.829999923706055px);}100%{-webkit-transform: translate(50.02999973297119px, 48.829999923706055px) scale(1, 1) translate(-50.02999973297119px, -48.829999923706055px);transform: translate(50.02999973297119px, 48.829999923706055px) scale(1, 1) translate(-50.02999973297119px, -48.829999923706055px);}}#el_MNYGJ9SOy *{-webkit-animation-duration: 1.5s;animation-duration: 1.5s;-webkit-animation-iteration-count: 1;animation-iteration-count: 1;-webkit-animation-timing-function: cubic-bezier(0, 0, 1, 1);animation-timing-function: cubic-bezier(0, 0, 1, 1);}#el_tdE40_ePhc{opacity: 1;fill: #ff9a62;fill-opacity: 1;}#el_jDiqrRmq90{opacity: 1;fill-opacity: 0;stroke: #000000;stroke-width: 1;stroke-opacity: 0;}#el_3YtjVS34eR{opacity: 1;fill: #eeeeee;fill-opacity: 1;}#el_S4xYtMw0AT{opacity: 1;fill-opacity: 0;stroke: #000000;stroke-width: 1;stroke-opacity: 0;}#el_mTMdggfBN5{opacity: 1;fill-opacity: 0;stroke: #000000;stroke-width: 1;stroke-opacity: 1;}#el_xYt5vVrO3J{opacity: 1;fill: #a0b157;fill-opacity: 1;}#el_hQpoHSlkraL{opacity: 1;fill-opacity: 0;stroke: #000000;stroke-width: 0;stroke-opacity: 1;}#el_IBRzCpWPzt8{opacity: 1;fill: #e98b52;fill-opacity: 1;}#el_ACLsrToIBFg{opacity: 1;fill-opacity: 0;stroke: #000000;stroke-width: 0;stroke-opacity: 1;}#el_VbXxyF6JfA9{opacity: 1;fill-opacity: 0;stroke: #000000;stroke-width: 0;stroke-opacity: 1;}#el_PMMrbauhuxj{opacity: 1;fill: #ff9a62;fill-opacity: 1;}#el_4YHeTOxmh2A{opacity: 1;fill-opacity: 0;stroke: #000000;stroke-width: 0;stroke-opacity: 1;}#el_J5zIKqY7FA_an_HGMShmzEk{-webkit-animation-fill-mode: forwards;animation-fill-mode: forwards;-webkit-transform: translate(50.02999973297119px, 48.829999923706055px) scale(0, 0) translate(-50.02999973297119px, -48.829999923706055px);transform: translate(50.02999973297119px, 48.829999923706055px) scale(0, 0) translate(-50.02999973297119px, -48.829999923706055px);-webkit-animation-name: kf_el_J5zIKqY7FA_an_HGMShmzEk;animation-name: kf_el_J5zIKqY7FA_an_HGMShmzEk;-webkit-animation-timing-function: cubic-bezier(0.42, 0, 0.58, 1);animation-timing-function: cubic-bezier(0.42, 0, 0.58, 1);}#el_qCqiqXGx7F_an_tKi2Gc77L{-webkit-animation-fill-mode: forwards;animation-fill-mode: forwards;-webkit-transform: translate(27.93000030517578px, 24.59000015258789px) translate(-27.93000030517578px, -24.59000015258789px) translate(0px, 40px);transform: translate(27.93000030517578px, 24.59000015258789px) translate(-27.93000030517578px, -24.59000015258789px) translate(0px, 40px);-webkit-animation-name: kf_el_qCqiqXGx7F_an_tKi2Gc77L;animation-name: kf_el_qCqiqXGx7F_an_tKi2Gc77L;-webkit-animation-timing-function: cubic-bezier(0.42, 0, 0.58, 1);animation-timing-function: cubic-bezier(0.42, 0, 0.58, 1);}#el_qCqiqXGx7F{-webkit-animation-fill-mode: forwards;animation-fill-mode: forwards;opacity: 0;-webkit-animation-name: kf_el_qCqiqXGx7F_an_4kf9Y8gk1;animation-name: kf_el_qCqiqXGx7F_an_4kf9Y8gk1;-webkit-animation-timing-function: cubic-bezier(0, 0, 1, 1);animation-timing-function: cubic-bezier(0, 0, 1, 1);}#el_iYiqoqcsTrQ{-webkit-animation-fill-mode: forwards;animation-fill-mode: forwards;opacity: 0;-webkit-animation-name: kf_el_iYiqoqcsTrQ_an_vep4cFmli;animation-name: kf_el_iYiqoqcsTrQ_an_vep4cFmli;-webkit-animation-timing-function: cubic-bezier(0.42, 0, 0.58, 1);animation-timing-function: cubic-bezier(0.42, 0, 0.58, 1);}#el_iYiqoqcsTrQ_an_eD0ZmmPD4{-webkit-animation-fill-mode: forwards;animation-fill-mode: forwards;-webkit-transform: translate(28.270000457763672px, 30.007083892822266px) translate(-28.270000457763672px, -30.007083892822266px) translate(-3px, -3px);transform: translate(28.270000457763672px, 30.007083892822266px) translate(-28.270000457763672px, -30.007083892822266px) translate(-3px, -3px);-webkit-animation-name: kf_el_iYiqoqcsTrQ_an_eD0ZmmPD4;animation-name: kf_el_iYiqoqcsTrQ_an_eD0ZmmPD4;-webkit-animation-timing-function: cubic-bezier(0, 0, 1, 1);animation-timing-function: cubic-bezier(0, 0, 1, 1);}#el_qQlrXaa78jm_an_-bWL_qVGC{-webkit-animation-fill-mode: forwards;animation-fill-mode: forwards;-webkit-transform: translate(13.949999809265137px, 72.73999786376953px) translate(-13.949999809265137px, -72.73999786376953px) translate(20px, -6px);transform: translate(13.949999809265137px, 72.73999786376953px) translate(-13.949999809265137px, -72.73999786376953px) translate(20px, -6px);-webkit-animation-name: kf_el_qQlrXaa78jm_an_-bWL_qVGC;animation-name: kf_el_qQlrXaa78jm_an_-bWL_qVGC;-webkit-animation-timing-function: cubic-bezier(0, 0, 1, 1);animation-timing-function: cubic-bezier(0, 0, 1, 1);}#el_qQlrXaa78jm{-webkit-animation-fill-mode: forwards;animation-fill-mode: forwards;opacity: 0;-webkit-animation-name: kf_el_qQlrXaa78jm_an_Ndfn07hnW;animation-name: kf_el_qQlrXaa78jm_an_Ndfn07hnW;-webkit-animation-timing-function: cubic-bezier(0, 0, 1, 1);animation-timing-function: cubic-bezier(0, 0, 1, 1);}#el_Co-Y7SAdu0{-webkit-animation-fill-mode: forwards;animation-fill-mode: forwards;opacity: 0;-webkit-animation-name: kf_el_Co-Y7SAdu0_an_lzpP1rCs4;animation-name: kf_el_Co-Y7SAdu0_an_lzpP1rCs4;-webkit-animation-timing-function: cubic-bezier(0, 0, 1, 1);animation-timing-function: cubic-bezier(0, 0, 1, 1);}</style><defs><path d="M50.03 6.83C26.83 6.83 8.03 25.64 8.03 48.83C8.03 72.03 26.83 90.83 50.03 90.83C73.23 90.83 92.03 72.03 92.03 48.83C92.03 25.64 73.23 6.83 50.03 6.83Z" id="c2P09XOntW"/><path d="M61.77 70.17C58.36 72.42 54.42 73.55 49.96 73.55C45.49 73.55 41.61 72.57 38.29 70.6C34.98 68.58 32.41 65.75 30.59 62.1C28.81 58.41 27.93 54.06 27.93 49.07C27.93 44.13 28.81 39.81 30.59 36.11C32.41 32.42 34.98 29.58 38.29 27.62C41.61 25.6 45.45 24.59 49.81 24.59C54.37 24.59 58.19 25.53 61.26 27.4C64.38 29.27 66.71 32.03 68.25 35.68C67.68 35.95 63.13 38.08 62.56 38.34C61.5 35.56 59.97 33.47 57.95 32.08C55.93 30.69 53.37 29.99 50.25 29.99C46.98 29.99 44.13 30.76 41.68 32.3C39.23 33.78 37.33 35.97 35.99 38.85C34.65 41.73 33.97 45.14 33.97 49.07C33.97 55.02 35.39 59.7 38.22 63.11C41.1 66.47 45.01 68.15 49.96 68.15C53.17 68.15 55.96 67.34 58.31 65.7C60.66 64.07 62.34 61.67 63.35 58.5C63.73 58.65 65.65 59.37 69.11 60.66C66.49 65.46 64.04 68.63 61.77 70.17Z" id="bgqp9SItK"/><path d="" id="a36YOpBNFY"/><path d="M28.27 54.3L28.97 58.61L30.06 62.3" id="b80lCLO5d4"/><path d="M29.16 58.3C29.16 58.3 29.16 58.3 29.16 58.3C29.32 59.04 29.55 59.77 29.85 60.47C29.88 60.53 29.95 60.69 30.06 60.94C30.07 61 30.09 61.03 30.09 61.05C30.35 61.8 30.72 62.52 31.19 63.17C31.19 63.17 31.19 63.17 31.19 63.17L31.79 64.2C31.79 64.2 31.79 64.2 31.79 64.2C32.08 64.82 32.45 65.39 32.89 65.9C32.95 65.96 33.09 66.13 33.31 66.38C33.37 66.45 33.4 66.49 33.41 66.5C34.39 67.66 35.53 68.69 36.77 69.56C36.83 69.59 36.96 69.68 37.17 69.83C37.24 69.88 37.28 69.91 37.3 69.93C38.73 70.99 40.32 71.8 42.02 72.34C42.02 72.34 42.02 72.34 42.02 72.34C42.13 72.38 42.21 72.41 42.24 72.43C42.94 72.72 43.68 72.9 44.44 72.98C44.44 72.98 44.44 72.98 44.44 72.98C44.44 72.98 44.44 72.98 44.44 72.98C45.1 73.15 45.77 73.28 46.44 73.35C46.45 73.35 46.49 73.35 46.55 73.36C46.88 73.41 47.08 73.44 47.16 73.45C47.6 73.52 48.05 73.55 48.5 73.55C48.61 73.55 48.88 73.55 49.33 73.55L50.44 73.55L51.48 73.51L52.44 73.43L53.64 73.24L55.16 72.98C55.43 72.92 55.61 72.89 55.68 72.88C56.27 72.77 56.84 72.6 57.39 72.37C57.72 72.23 58.52 71.9 59.81 71.37C59.92 71.32 59.99 71.28 60.02 71.27C61.35 70.64 62.54 69.74 63.53 68.65C63.53 68.65 63.53 68.65 63.53 68.65C63.53 68.65 63.53 68.65 63.53 68.65C64.57 67.63 65.49 66.5 66.28 65.28C66.34 65.19 66.48 64.96 66.72 64.59C66.72 64.59 66.72 64.59 66.72 64.59C67.61 63.34 68.41 62.02 69.1 60.65C69.1 60.64 69.1 60.63 69.11 60.62L63.37 58.46C63.17 59.04 63.04 59.41 62.98 59.55C62.53 60.84 61.86 62.04 61.01 63.11C60.98 63.13 60.93 63.2 60.84 63.31C60.81 63.35 60.79 63.37 60.78 63.38C60.14 64.19 59.39 64.9 58.56 65.52C58.56 65.52 58.56 65.52 58.56 65.52C58.56 65.52 58.56 65.52 58.56 65.52C57.51 66.3 56.33 66.91 55.08 67.32C55.02 67.34 54.87 67.39 54.63 67.47C54.51 67.51 54.43 67.54 54.4 67.55C53.38 67.89 52.32 68.08 51.24 68.12C51.11 68.13 50.78 68.14 50.25 68.16C50.25 68.16 50.25 68.16 50.25 68.16C48.76 68.22 47.27 68.07 45.82 67.71C45.77 67.7 45.66 67.67 45.48 67.62C44.95 67.48 44.62 67.39 44.49 67.35C43.51 67.08 42.57 66.66 41.71 66.12C41.62 66.05 41.37 65.9 40.99 65.66C40.84 65.55 40.75 65.49 40.71 65.46C39.88 64.89 39.13 64.19 38.5 63.4C38.49 63.39 38.46 63.36 38.42 63.31C38.36 63.24 38.32 63.19 38.31 63.18C37.55 62.29 36.9 61.32 36.35 60.3C36.35 60.28 36.33 60.25 36.3 60.19C36.26 60.13 36.24 60.09 36.23 60.08C35.61 58.95 35.16 57.74 34.89 56.49C34.89 56.49 34.89 56.49 34.89 56.49C34.89 56.49 34.89 56.49 34.89 56.49C34.44 55.03 34.16 53.53 34.07 52C34.07 51.95 34.06 51.81 34.05 51.58C34.03 51.4 34.02 51.28 34.02 51.23C33.89 49.72 33.9 48.2 34.04 46.69C34.05 46.59 34.07 46.35 34.11 45.96C34.12 45.79 34.13 45.68 34.14 45.64C34.24 44.42 34.48 43.21 34.83 42.04C34.9 41.84 35.05 41.33 35.3 40.52C35.3 40.52 35.3 40.52 35.3 40.52C35.85 38.77 36.72 37.13 37.87 35.7C37.9 35.66 37.98 35.55 38.12 35.39C38.2 35.28 38.26 35.22 38.28 35.19C39 34.3 39.85 33.53 40.8 32.88C40.87 32.84 41.04 32.72 41.32 32.53C41.85 32.22 42.17 32.03 42.31 31.95C43.11 31.48 43.95 31.09 44.82 30.78C44.82 30.78 44.82 30.78 44.82 30.78C45.39 30.63 45.75 30.54 45.89 30.5C46.64 30.31 47.39 30.18 48.15 30.12C48.15 30.12 48.15 30.12 48.15 30.12L49.56 30.02L50.65 30.02C50.65 30.02 50.65 30.02 50.65 30.02C51.91 29.96 53.18 30.11 54.39 30.45C54.42 30.46 54.5 30.48 54.63 30.51C55.17 30.7 55.5 30.82 55.63 30.87C56.79 31.27 57.84 31.91 58.75 32.73C58.83 32.81 59.05 33.01 59.4 33.32C59.59 33.52 59.71 33.64 59.75 33.69C60.84 34.81 61.69 36.13 62.25 37.58C62.29 37.68 62.39 37.94 62.55 38.35L68.15 35.66L91.76 53.86C91.7 54.38 91.66 54.7 91.64 54.83C91.39 56.91 90.93 58.96 90.27 60.94C90.21 61.11 90.07 61.52 89.85 62.19C89.7 62.67 89.6 62.97 89.56 63.09C89.09 64.59 88.48 66.04 87.74 67.43C87.6 67.7 87.24 68.38 86.67 69.46C86.17 70.31 85.86 70.84 85.73 71.05C85.02 72.26 84.21 73.4 83.31 74.47C83.05 74.77 82.42 75.53 81.4 76.73C80.99 77.19 80.74 77.48 80.63 77.6C79.33 79.06 77.9 80.39 76.34 81.57C76.21 81.67 75.89 81.91 75.37 82.3C74.16 83.18 73.4 83.74 73.1 83.96C72.32 84.52 71.51 85.02 70.65 85.45C70.28 85.64 69.34 86.11 67.83 86.87C67.05 87.24 66.56 87.47 66.37 87.56C65.04 88.2 63.65 88.69 62.22 89.04C61.86 89.12 60.96 89.34 59.53 89.69C58.71 89.87 58.2 89.99 58 90.04C55.67 90.57 53.3 90.83 50.92 90.83C50.87 90.83 50.74 90.83 50.53 90.83L46.29 90.72L41.87 90.06C41.69 90.03 41.58 90.01 41.53 90C38.73 89.5 36 88.63 33.43 87.41C33.32 87.36 33.05 87.24 32.62 87.03L28.27 54.3L28.96 57.68L29.16 58.3Z" id="bmxTE4YX"/><path d="M13.06 90.18L15.34 72.33" id="c1qHB3Gt0E"/><path d="M31.95 86.74L13.95 93.89L17.53 72.74L31.95 86.74Z" id="d20xRmbCPI"/></defs><g id="el_kUGbZqiMWJ"><g id="el_suVnxA5Zj9"><g id="el_J5zIKqY7FA_an_HGMShmzEk" data-animator-group="true" data-animator-type="2"><g id="el_J5zIKqY7FA"><use xlink:href="#c2P09XOntW" id="el_tdE40_ePhc"/><g id="el_woG3cGjGL8"><use xlink:href="#c2P09XOntW" id="el_jDiqrRmq90"/></g></g></g><g id="el_qCqiqXGx7F_an_tKi2Gc77L" data-animator-group="true" data-animator-type="0"><g id="el_qCqiqXGx7F"><use xlink:href="#bgqp9SItK" id="el_3YtjVS34eR"/><g id="el_G-2wOG5aSU"><use xlink:href="#bgqp9SItK" id="el_S4xYtMw0AT"/></g></g></g><g id="el_QI7HHY5UZr"><g id="el_GpHR6hr3mF"><use xlink:href="#a36YOpBNFY" id="el_mTMdggfBN5"/></g></g><g id="el_Co-Y7SAdu0"><use xlink:href="#b80lCLO5d4" id="el_xYt5vVrO3J"/><g id="el_uNU2SwD4WWD"><use xlink:href="#b80lCLO5d4" id="el_hQpoHSlkraL"/></g></g><g id="el_iYiqoqcsTrQ_an_eD0ZmmPD4" data-animator-group="true" data-animator-type="0"><g id="el_iYiqoqcsTrQ"><use xlink:href="#bmxTE4YX" id="el_IBRzCpWPzt8"/><g id="el_qQW96hgz9j4"><use xlink:href="#bmxTE4YX" id="el_ACLsrToIBFg"/></g></g></g><g id="el_WhFJKrI998V"><g id="el_CRC_OfUZC7J"><use xlink:href="#c1qHB3Gt0E" id="el_VbXxyF6JfA9"/></g></g><g id="el_qQlrXaa78jm_an_-bWL_qVGC" data-animator-group="true" data-animator-type="0"><g id="el_qQlrXaa78jm"><use xlink:href="#d20xRmbCPI" id="el_PMMrbauhuxj"/><g id="el_8t_dQH0SeWC"><use xlink:href="#d20xRmbCPI" id="el_4YHeTOxmh2A"/></g></g></g></g></g></svg>