<?xml version="1.0" encoding="UTF-8" standalone="no"?>
<!DOCTYPE svg PUBLIC "-//W3C//DTD SVG 1.1//EN" "http://www.w3.org/Graphics/SVG/1.1/DTD/svg11.dtd">
<svg version="1.1" xmlns="http://www.w3.org/2000/svg" xmlns:xlink="http://www.w3.org/1999/xlink" preserveAspectRatio="xMidYMid meet" viewBox="0 0 90 90" width="90" height="90"><defs><path d="M45.08 1.88C21.88 1.88 3.08 20.68 3.08 43.88C3.08 67.08 21.88 85.88 45.08 85.88C68.27 85.88 87.08 67.08 87.08 43.88C87.08 20.68 68.27 1.88 45.08 1.88Z" id="cMhml5Xhw"></path><path d="M56.81 65.22C53.4 67.47 49.47 68.6 45 68.6C40.54 68.6 36.65 67.62 33.34 65.65C30.03 63.63 27.46 60.8 25.64 57.15C23.86 53.46 22.97 49.11 22.97 44.12C22.97 39.18 23.86 34.86 25.64 31.16C27.46 27.46 30.03 24.63 33.34 22.66C36.65 20.65 40.49 19.64 44.86 19.64C49.42 19.64 53.24 20.58 56.31 22.45C59.43 24.32 61.76 27.08 63.29 30.73C62.72 30.99 58.17 33.12 57.6 33.39C56.55 30.61 55.01 28.52 53 27.13C50.98 25.74 48.41 25.04 45.29 25.04C42.03 25.04 39.17 25.81 36.72 27.34C34.28 28.83 32.38 31.02 31.04 33.9C29.69 36.78 29.02 40.18 29.02 44.12C29.02 50.07 30.44 54.75 33.27 58.16C36.15 61.52 40.06 63.2 45 63.2C48.22 63.2 51 62.38 53.36 60.75C55.71 59.12 57.39 56.72 58.4 53.55C58.78 53.7 60.7 54.42 64.16 55.71C61.53 60.51 59.08 63.68 56.81 65.22Z" id="e2XbEMzAaZ"></path><path d="" id="c22iWnzYzg"></path><path d="M23.31 49.34L24.01 53.65L25.1 57.34" id="adFeu8xc7"></path><path d="M45.08 1.88C21.88 1.88 3.08 20.68 3.08 43.88C3.08 67.08 21.88 85.88 45.08 85.88C68.27 85.88 87.08 67.08 87.08 43.88C87.08 20.68 68.27 1.88 45.08 1.88Z" id="a41cOvvjPN"></path><path d="M56.81 65.22C53.4 67.47 49.47 68.6 45 68.6C40.54 68.6 36.65 67.62 33.34 65.65C30.03 63.63 27.46 60.8 25.64 57.15C23.86 53.46 22.97 49.11 22.97 44.12C22.97 39.18 23.86 34.86 25.64 31.16C27.46 27.46 30.03 24.63 33.34 22.66C36.65 20.65 40.49 19.64 44.86 19.64C49.42 19.64 53.24 20.58 56.31 22.45C59.43 24.32 61.76 27.08 63.29 30.73C62.72 30.99 58.17 33.12 57.6 33.39C56.55 30.61 55.01 28.52 53 27.13C50.98 25.74 48.41 25.04 45.29 25.04C42.03 25.04 39.17 25.81 36.72 27.34C34.28 28.83 32.38 31.02 31.04 33.9C29.69 36.78 29.02 40.18 29.02 44.12C29.02 50.07 30.44 54.75 33.27 58.16C36.15 61.52 40.06 63.2 45 63.2C48.22 63.2 51 62.38 53.36 60.75C55.71 59.12 57.39 56.72 58.4 53.55C58.78 53.7 60.7 54.42 64.16 55.71C61.53 60.51 59.08 63.68 56.81 65.22Z" id="a2ZmsFehm8"></path><path d="M24.21 53.34C24.21 53.34 24.21 53.34 24.21 53.34C24.36 54.09 24.6 54.82 24.9 55.52C24.93 55.58 24.99 55.74 25.1 55.99C25.12 56.04 25.13 56.08 25.14 56.09C25.4 56.85 25.77 57.57 26.24 58.22C26.24 58.22 26.24 58.22 26.24 58.22L26.84 59.25C26.84 59.25 26.84 59.25 26.84 59.25C27.13 59.86 27.5 60.43 27.94 60.95C28 61.01 28.14 61.17 28.36 61.43C28.41 61.49 28.44 61.53 28.46 61.55C29.44 62.71 30.57 63.73 31.82 64.6C31.87 64.64 32.01 64.73 32.22 64.88C32.29 64.93 32.33 64.96 32.35 64.97C33.77 66.03 35.37 66.85 37.06 67.38C37.06 67.38 37.06 67.38 37.06 67.38C37.18 67.43 37.25 67.46 37.28 67.47C37.99 67.76 38.73 67.95 39.49 68.02C39.49 68.02 39.49 68.02 39.49 68.02C39.49 68.02 39.49 68.02 39.49 68.02C40.14 68.2 40.81 68.32 41.49 68.4C41.5 68.4 41.54 68.4 41.59 68.41C41.92 68.46 42.13 68.49 42.21 68.5C42.65 68.57 43.1 68.6 43.54 68.6C43.65 68.6 43.93 68.6 44.37 68.6L45.48 68.6L46.53 68.55L47.48 68.48L48.69 68.29L50.2 68.02C50.48 67.97 50.65 67.94 50.72 67.92C51.31 67.81 51.89 67.64 52.44 67.41C52.76 67.28 53.57 66.95 54.86 66.42C54.97 66.36 55.04 66.33 55.07 66.32C56.4 65.68 57.59 64.79 58.58 63.7C58.58 63.7 58.58 63.7 58.58 63.7C58.58 63.7 58.58 63.7 58.58 63.7C59.61 62.68 60.54 61.55 61.32 60.32C61.38 60.23 61.53 60 61.76 59.64C61.77 59.64 61.77 59.64 61.77 59.64C62.66 58.39 63.45 57.07 64.14 55.7C64.14 55.69 64.15 55.68 64.16 55.66L58.42 53.51C58.21 54.09 58.08 54.46 58.03 54.6C57.57 55.89 56.9 57.09 56.05 58.15C56.03 58.18 55.98 58.25 55.89 58.36C55.86 58.4 55.84 58.42 55.83 58.43C55.18 59.23 54.44 59.95 53.61 60.56C53.61 60.56 53.61 60.56 53.61 60.56C53.61 60.56 53.61 60.56 53.61 60.56C52.55 61.35 51.38 61.96 50.13 62.37C50.07 62.39 49.92 62.44 49.68 62.52C49.56 62.56 49.48 62.58 49.45 62.59C48.43 62.94 47.36 63.13 46.29 63.17C46.16 63.17 45.83 63.18 45.3 63.2C45.3 63.2 45.3 63.2 45.3 63.2C43.81 63.26 42.32 63.11 40.87 62.75C40.82 62.74 40.71 62.72 40.53 62.67C40 62.52 39.67 62.43 39.54 62.4C38.56 62.12 37.62 61.71 36.76 61.16C36.66 61.1 36.42 60.95 36.03 60.7C35.89 60.6 35.79 60.54 35.76 60.51C34.92 59.93 34.18 59.24 33.54 58.45C33.53 58.44 33.51 58.41 33.47 58.36C33.41 58.29 33.37 58.24 33.35 58.22C32.6 57.34 31.95 56.37 31.4 55.34C31.39 55.33 31.37 55.29 31.35 55.24C31.31 55.18 31.29 55.14 31.28 55.12C30.66 54 30.21 52.79 29.94 51.53C29.94 51.53 29.94 51.53 29.94 51.53C29.94 51.53 29.94 51.53 29.94 51.53C29.48 50.08 29.21 48.57 29.12 47.05C29.11 46.99 29.11 46.85 29.09 46.63C29.08 46.44 29.07 46.33 29.06 46.28C28.94 44.77 28.94 43.24 29.09 41.73C29.1 41.64 29.12 41.39 29.15 41C29.17 40.84 29.18 40.73 29.18 40.69C29.29 39.46 29.52 38.26 29.88 37.08C29.94 36.88 30.1 36.37 30.35 35.56C30.35 35.56 30.35 35.56 30.35 35.56C30.9 33.81 31.77 32.18 32.92 30.74C32.95 30.7 33.03 30.6 33.16 30.43C33.25 30.33 33.3 30.26 33.32 30.24C34.05 29.35 34.9 28.57 35.84 27.93C35.91 27.88 36.09 27.76 36.37 27.57C36.89 27.27 37.22 27.07 37.35 27C38.15 26.53 38.99 26.14 39.87 25.82C39.87 25.82 39.87 25.82 39.87 25.82C40.44 25.68 40.8 25.58 40.94 25.55C41.68 25.36 42.44 25.23 43.2 25.17C43.2 25.17 43.2 25.17 43.2 25.17L44.61 25.07L45.7 25.07C45.7 25.07 45.7 25.07 45.7 25.07C46.96 25.01 48.22 25.15 49.44 25.49C49.47 25.5 49.55 25.53 49.68 25.56C50.21 25.75 50.55 25.87 50.68 25.91C51.83 26.32 52.89 26.95 53.79 27.78C53.88 27.86 54.1 28.05 54.44 28.37C54.63 28.57 54.75 28.69 54.8 28.74C55.88 29.86 56.73 31.18 57.3 32.63C57.34 32.73 57.44 32.99 57.6 33.4L63.2 30.71L86.81 48.91C86.75 49.43 86.71 49.75 86.69 49.88C86.44 51.96 85.97 54 85.31 55.99C85.26 56.16 85.12 56.57 84.9 57.24C84.74 57.72 84.65 58.02 84.61 58.14C84.13 59.64 83.53 61.09 82.79 62.48C82.65 62.75 82.29 63.43 81.71 64.51C81.22 65.36 80.9 65.89 80.78 66.1C80.07 67.31 79.26 68.45 78.36 69.52C78.1 69.82 77.46 70.57 76.45 71.78C76.04 72.24 75.78 72.53 75.68 72.64C74.38 74.1 72.94 75.44 71.38 76.62C71.25 76.72 70.93 76.96 70.42 77.35C69.21 78.23 68.45 78.78 68.14 79C67.37 79.57 66.55 80.06 65.7 80.49C65.32 80.68 64.38 81.16 62.88 81.91C62.1 82.28 61.61 82.52 61.41 82.61C60.09 83.24 58.7 83.74 57.27 84.08C56.91 84.17 56.01 84.39 54.57 84.74C53.76 84.92 53.25 85.04 53.04 85.08C50.72 85.61 48.35 85.88 45.96 85.88C45.91 85.88 45.78 85.88 45.58 85.88L41.34 85.77L36.91 85.11C36.74 85.08 36.62 85.06 36.58 85.05C33.77 84.55 31.05 83.68 28.47 82.46C28.37 82.41 28.1 82.28 27.67 82.08L23.31 49.34L24.01 52.72L24.21 53.34Z" id="c15hHeDkGt"></path><path d="M8.11 85.23L10.39 67.37" id="hWiMOLkfm"></path><path d="M27 81.79L9 88.93L12.57 67.79L27 81.79Z" id="a80StiXk5X"></path></defs><g><g><g><use xlink:href="#cMhml5Xhw" opacity="1" fill="#ff9a62" fill-opacity="1"></use><g><use xlink:href="#cMhml5Xhw" opacity="1" fill-opacity="0" stroke="#000000" stroke-width="1" stroke-opacity="0"></use></g></g><g><use xlink:href="#e2XbEMzAaZ" opacity="1" fill="#eeeeee" fill-opacity="1"></use><g><use xlink:href="#e2XbEMzAaZ" opacity="1" fill-opacity="0" stroke="#000000" stroke-width="1" stroke-opacity="0"></use></g></g><g><g><use xlink:href="#c22iWnzYzg" opacity="1" fill-opacity="0" stroke="#000000" stroke-width="1" stroke-opacity="1"></use></g></g><g><use xlink:href="#adFeu8xc7" opacity="1" fill="#a0b157" fill-opacity="1"></use><g><use xlink:href="#adFeu8xc7" opacity="1" fill-opacity="0" stroke="#000000" stroke-width="0" stroke-opacity="1"></use></g></g><g><use xlink:href="#a41cOvvjPN" opacity="1" fill="#ff9a62" fill-opacity="1"></use><g><use xlink:href="#a41cOvvjPN" opacity="1" fill-opacity="0" stroke="#000000" stroke-width="1" stroke-opacity="0"></use></g></g><g><use xlink:href="#a2ZmsFehm8" opacity="1" fill="#eeeeee" fill-opacity="1"></use><g><use xlink:href="#a2ZmsFehm8" opacity="1" fill-opacity="0" stroke="#000000" stroke-width="1" stroke-opacity="0"></use></g></g><g><use xlink:href="#c15hHeDkGt" opacity="1" fill="#e98b52" fill-opacity="1"></use><g><use xlink:href="#c15hHeDkGt" opacity="1" fill-opacity="0" stroke="#000000" stroke-width="0" stroke-opacity="1"></use></g></g><g><g><use xlink:href="#hWiMOLkfm" opacity="1" fill-opacity="0" stroke="#000000" stroke-width="0" stroke-opacity="1"></use></g></g><g><use xlink:href="#a80StiXk5X" opacity="1" fill="#ff9a62" fill-opacity="1"></use><g><use xlink:href="#a80StiXk5X" opacity="1" fill-opacity="0" stroke="#000000" stroke-width="0" stroke-opacity="1"></use></g></g></g></g></svg>