<?xml version="1.0" encoding="UTF-8" standalone="no"?>
<!DOCTYPE svg PUBLIC "-//W3C//DTD SVG 1.1//EN" "http://www.w3.org/Graphics/SVG/1.1/DTD/svg11.dtd">
<svg version="1.1" xmlns="http://www.w3.org/2000/svg" xmlns:xlink="http://www.w3.org/1999/xlink" preserveAspectRatio="xMidYMid meet" viewBox="0 0 500 450" width="500" height="450"><defs><path d="M348.86 9.61L349.47 9.62L350.08 9.64L350.68 9.66L351.29 9.69L351.89 9.73L352.48 9.78L353.08 9.83L353.67 9.88L354.25 9.95L354.84 10.02L355.42 10.1L356 10.18L356.58 10.27L357.15 10.37L357.72 10.48L358.28 10.59L358.85 10.71L359.41 10.83L359.96 10.97L360.52 11.11L361.07 11.26L361.61 11.41L362.16 11.57L362.7 11.74L363.23 11.92L363.76 12.1L364.29 12.29L364.82 12.49L365.34 12.69L365.86 12.9L366.37 13.12L366.88 13.35L367.39 13.58L367.89 13.82L368.39 14.07L368.88 14.32L369.38 14.59L369.86 14.86L370.35 15.13L372.39 16.4L374.36 17.78L376.24 19.29L378.05 20.93L379.77 22.68L381.42 24.55L382.98 26.53L384.46 28.63L385.87 30.83L387.19 33.15L388.44 35.58L389.6 38.11L390.69 40.74L391.69 43.48L392.62 46.32L393.47 49.25L394.24 52.28L394.93 55.4L395.54 58.61L396.07 61.92L396.52 65.31L396.89 68.79L397.19 72.35L397.41 75.99L397.54 79.71L397.6 83.51L397.59 87.39L397.49 91.34L397.32 95.36L397.06 99.45L396.73 103.61L396.32 107.83L395.84 112.12L395.28 116.47L394.63 120.88L393.92 125.35L393.12 129.88L392.25 134.45L391.3 139.09L390.27 143.77L394.85 145.2L399.34 146.68L403.75 148.2L408.08 149.76L412.31 151.35L416.46 152.99L420.52 154.67L424.49 156.38L428.36 158.12L432.13 159.91L435.81 161.72L439.38 163.57L442.86 165.46L446.23 167.37L449.5 169.31L452.66 171.28L455.71 173.29L458.66 175.31L461.49 177.37L464.21 179.45L466.81 181.56L469.29 183.69L471.66 185.84L473.9 188.01L476.02 190.21L478.02 192.43L479.9 194.66L481.64 196.92L483.25 199.19L484.74 201.47L486.09 203.78L487.31 206.09L488.39 208.43L489.33 210.77L490.13 213.12L490.79 215.49L491.3 217.87L491.67 220.25L491.9 222.65L491.97 225.05L491.9 227.44L491.68 229.83L491.31 232.21L490.79 234.58L490.14 236.94L489.34 239.29L488.4 241.63L487.33 243.96L486.12 246.27L484.78 248.57L483.3 250.85L481.69 253.12L479.96 255.37L478.1 257.6L476.11 259.81L474 262.01L471.76 264.18L469.41 266.33L466.94 268.46L464.35 270.56L461.65 272.64L458.84 274.69L455.91 276.72L452.88 278.72L449.73 280.69L446.48 282.64L443.13 284.55L439.67 286.43L436.12 288.28L432.46 290.09L428.71 291.88L424.86 293.62L420.92 295.33L416.89 297.01L412.77 298.65L408.56 300.24L404.26 301.8L399.88 303.32L395.41 304.8L390.86 306.23L391.9 310.9L392.86 315.52L393.74 320.08L394.54 324.59L395.26 329.05L395.91 333.45L396.48 337.78L396.98 342.06L397.39 346.27L397.73 350.42L397.99 354.5L398.17 358.51L398.27 362.45L398.3 366.32L398.25 370.11L398.12 373.82L397.91 377.46L397.62 381.01L397.25 384.48L396.81 387.86L396.28 391.16L395.68 394.36L395 397.48L394.24 400.5L393.4 403.43L392.48 406.26L391.48 408.99L390.4 411.62L389.24 414.15L388.01 416.57L386.69 418.88L385.29 421.09L383.82 423.18L382.26 425.17L380.62 427.03L378.9 428.78L377.11 430.41L375.23 431.92L373.27 433.31L371.23 434.57L370.74 434.85L370.25 435.12L369.75 435.38L369.25 435.63L368.75 435.88L368.24 436.12L367.73 436.36L367.21 436.58L366.69 436.8L366.17 437.01L365.64 437.22L365.11 437.42L364.58 437.61L364.04 437.79L363.5 437.96L362.96 438.13L362.41 438.29L361.86 438.45L361.31 438.6L360.75 438.74L360.19 438.87L359.63 439L359.06 439.12L358.49 439.23L357.92 439.33L357.34 439.43L356.76 439.52L356.18 439.61L355.59 439.69L355 439.76L354.41 439.82L353.82 439.88L353.22 439.93L352.61 439.97L352.01 440.01L351.4 440.04L350.79 440.06L350.18 440.08L349.56 440.09L348.94 440.09L346.89 440.06L344.81 439.95L342.7 439.77L340.56 439.52L338.39 439.21L336.19 438.82L333.97 438.36L331.72 437.84L329.45 437.24L327.15 436.58L324.82 435.85L322.48 435.06L320.11 434.2L317.72 433.27L315.31 432.28L312.87 431.22L310.42 430.1L307.95 428.92L305.46 427.67L302.96 426.36L300.44 424.98L297.9 423.55L295.35 422.05L292.78 420.49L290.2 418.87L287.61 417.19L285 415.45L282.39 413.65L279.76 411.8L277.13 409.88L274.48 407.91L271.83 405.88L269.17 403.79L266.5 401.64L263.83 399.44L261.15 397.19L258.46 394.87L255.78 392.51L253.09 390.09L250.39 387.61L247.7 390.1L245.01 392.54L242.33 394.92L239.64 397.25L236.96 399.52L234.29 401.73L231.62 403.89L228.96 405.99L226.31 408.04L223.66 410.03L221.03 411.95L218.4 413.83L215.79 415.64L213.18 417.39L210.59 419.08L208.01 420.71L205.44 422.29L202.89 423.8L200.35 425.24L197.83 426.63L195.32 427.95L192.84 429.21L190.37 430.4L187.92 431.54L185.48 432.6L183.07 433.6L180.68 434.54L178.31 435.41L175.97 436.21L173.64 436.94L171.34 437.61L169.07 438.21L166.82 438.74L164.6 439.2L162.4 439.59L160.23 439.91L158.09 440.16L155.98 440.34L153.9 440.45L151.85 440.49L151.23 440.48L150.61 440.47L150 440.46L149.39 440.43L148.78 440.4L148.17 440.37L147.57 440.32L146.97 440.27L146.38 440.22L145.79 440.15L145.2 440.08L144.61 440L144.03 439.92L143.45 439.83L142.88 439.73L142.3 439.62L141.73 439.51L141.17 439.39L140.61 439.26L140.05 439.13L139.49 438.99L138.94 438.84L138.39 438.69L137.85 438.53L137.31 438.36L136.77 438.18L136.24 438L135.71 437.81L135.18 437.61L134.66 437.41L134.14 437.2L133.63 436.98L133.12 436.75L132.61 436.52L132.11 436.28L131.61 436.03L131.12 435.77L130.62 435.51L130.14 435.24L129.65 434.96L127.61 433.7L125.64 432.31L123.76 430.8L121.95 429.17L120.23 427.42L118.58 425.55L117.02 423.57L115.54 421.47L114.13 419.26L112.81 416.95L111.56 414.52L110.4 411.99L109.31 409.35L108.31 406.62L107.38 403.78L106.53 400.85L105.76 397.82L105.07 394.7L104.46 391.49L103.93 388.18L103.48 384.79L103.11 381.31L102.81 377.75L102.59 374.11L102.46 370.39L102.4 366.59L102.41 362.71L102.51 358.76L102.68 354.74L102.94 350.65L103.27 346.49L103.68 342.27L104.16 337.98L104.72 333.63L105.37 329.22L106.08 324.75L106.88 320.22L107.75 315.64L108.7 311.01L109.73 306.33L105.15 304.9L100.66 303.42L96.25 301.9L91.92 300.34L87.69 298.74L83.54 297.11L79.48 295.43L75.51 293.72L71.64 291.97L67.87 290.19L64.19 288.37L60.62 286.53L57.14 284.64L53.77 282.73L50.5 280.79L47.34 278.81L44.29 276.81L41.34 274.78L38.51 272.73L35.79 270.65L33.19 268.54L30.71 266.41L28.34 264.26L26.1 262.08L23.98 259.89L21.98 257.67L20.1 255.44L18.36 253.18L16.75 250.91L15.26 248.63L13.91 246.32L12.69 244L11.61 241.67L10.67 239.33L9.87 236.97L9.21 234.61L8.7 232.23L8.33 229.84L8.1 227.45L8.03 225.05L8.1 222.66L8.32 220.27L8.69 217.89L9.21 215.52L9.86 213.16L10.66 210.81L11.6 208.48L12.67 206.15L13.88 203.84L15.23 201.54L16.7 199.26L18.31 197L20.05 194.75L21.91 192.52L23.9 190.31L26.02 188.12L28.25 185.95L30.61 183.8L33.08 181.68L35.67 179.57L38.38 177.5L41.2 175.44L44.13 173.42L47.17 171.42L50.32 169.45L53.57 167.51L56.93 165.59L60.39 163.71L63.96 161.86L67.62 160.05L71.38 158.26L75.24 156.51L79.19 154.8L83.23 153.12L87.36 151.48L91.59 149.88L95.9 148.31L100.29 146.79L104.77 145.31L109.33 143.87L108.3 139.2L107.34 134.58L106.46 130.02L105.66 125.51L104.93 121.05L104.29 116.65L103.71 112.31L103.22 108.04L102.81 103.82L102.47 99.68L102.21 95.6L102.03 91.58L101.92 87.65L101.9 83.78L101.95 79.99L102.08 76.28L102.29 72.64L102.58 69.09L102.95 65.62L103.39 62.24L103.91 58.94L104.52 55.73L105.2 52.62L105.96 49.6L106.8 46.67L107.72 43.84L108.72 41.11L109.8 38.48L110.95 35.95L112.19 33.53L113.51 31.21L114.91 29.01L116.38 26.91L117.94 24.93L119.58 23.07L121.29 21.32L123.09 19.69L124.97 18.18L126.93 16.79L128.96 15.53L129.45 15.25L129.95 14.98L130.45 14.72L130.95 14.46L131.45 14.22L131.96 13.98L132.47 13.74L132.99 13.52L133.51 13.3L134.03 13.08L134.55 12.88L135.08 12.68L135.62 12.49L136.15 12.31L136.69 12.13L137.24 11.97L137.78 11.8L138.33 11.65L138.89 11.5L139.44 11.36L140 11.23L140.57 11.1L141.14 10.98L141.71 10.87L142.28 10.76L142.86 10.67L143.44 10.57L144.02 10.49L144.6 10.41L145.19 10.34L145.79 10.28L146.38 10.22L146.98 10.17L147.58 10.13L148.19 10.09L148.8 10.06L149.41 10.04L150.02 10.02L150.64 10.01L151.26 10.01L151.26 9.91L153.31 9.94L155.39 10.05L157.5 10.23L159.64 10.48L161.81 10.79L164 11.18L166.23 11.64L168.48 12.16L170.75 12.76L173.05 13.42L175.37 14.15L177.72 14.94L180.09 15.8L182.48 16.73L184.89 17.72L187.32 18.78L189.77 19.9L192.24 21.08L194.73 22.33L197.24 23.64L199.76 25.02L202.3 26.45L204.85 27.95L207.42 29.51L210 31.13L212.59 32.81L215.19 34.55L217.81 36.35L220.44 38.2L223.07 40.12L225.72 42.09L228.37 44.12L231.03 46.21L233.7 48.36L236.37 50.56L239.05 52.81L241.73 55.13L244.42 57.49L247.11 59.91L249.8 62.39L252.49 59.9L255.18 57.46L257.87 55.08L260.55 52.75L263.23 50.48L265.91 48.27L268.57 46.11L271.24 44.01L273.89 41.96L276.53 39.97L279.17 38.05L281.8 36.17L284.41 34.36L287.02 32.61L289.61 30.92L292.19 29.29L294.76 27.71L297.31 26.2L299.85 24.76L302.37 23.37L304.87 22.05L307.36 20.79L309.83 19.6L312.28 18.46L314.71 17.4L317.13 16.4L319.52 15.46L321.89 14.59L324.23 13.79L326.56 13.06L328.85 12.39L331.13 11.79L333.38 11.26L335.6 10.8L337.8 10.41L339.97 10.09L342.11 9.84L344.22 9.66L346.3 9.55L348.35 9.51L348.35 9.61L348.86 9.61ZM130.52 313.74L130.36 314.49L130.2 315.23L130.04 315.98L129.89 316.72L129.74 317.46L129.59 318.2L129.44 318.94L129.29 319.68L129.14 320.42L129 321.16L128.86 321.89L128.72 322.63L128.58 323.36L128.44 324.09L128.31 324.82L128.18 325.55L128.04 326.28L127.92 327.01L127.79 327.74L127.66 328.46L127.54 329.18L127.42 329.91L127.3 330.63L127.19 331.35L127.07 332.07L126.96 332.78L126.85 333.5L126.75 334.21L126.64 334.92L126.54 335.63L126.44 336.34L126.34 337.05L126.25 337.75L126.15 338.46L126.06 339.16L125.98 339.86L125.89 340.56L125.81 341.25L125.49 344.06L125.2 346.84L124.96 349.58L124.75 352.29L124.59 354.96L124.46 357.6L124.36 360.19L124.31 362.75L124.29 365.26L124.3 367.73L124.36 370.16L124.45 372.54L124.57 374.88L124.73 377.17L124.93 379.41L125.16 381.6L125.42 383.74L125.72 385.82L126.06 387.86L126.42 389.83L126.83 391.76L127.26 393.62L127.73 395.42L128.23 397.17L128.76 398.85L129.33 400.47L129.93 402.03L130.56 403.52L131.22 404.95L131.91 406.31L132.63 407.6L133.39 408.82L134.17 409.97L134.99 411.05L135.84 412.05L136.71 412.98L137.62 413.84L138.55 414.61L139.51 415.31L140.51 415.93L140.73 416.05L140.95 416.17L141.18 416.29L141.42 416.4L141.65 416.52L141.89 416.63L142.13 416.73L142.37 416.84L142.62 416.94L142.87 417.04L143.12 417.13L143.38 417.22L143.64 417.31L143.9 417.4L144.16 417.48L144.43 417.56L144.7 417.64L144.97 417.71L145.25 417.78L145.52 417.85L145.8 417.91L146.09 417.98L146.37 418.04L146.66 418.09L146.95 418.14L147.25 418.2L147.55 418.24L147.85 418.29L148.15 418.33L148.45 418.37L148.76 418.4L149.07 418.43L149.39 418.46L149.7 418.49L150.02 418.51L150.34 418.54L150.66 418.55L150.99 418.57L151.32 418.58L151.65 418.59L153.21 418.56L154.8 418.47L156.43 418.31L158.09 418.1L159.78 417.83L161.51 417.49L163.27 417.1L165.06 416.65L166.88 416.13L168.73 415.56L170.61 414.93L172.52 414.24L174.46 413.5L176.42 412.69L178.41 411.83L180.42 410.91L182.46 409.94L184.52 408.9L186.61 407.81L188.72 406.67L190.85 405.46L193 404.2L195.17 402.89L197.36 401.52L199.57 400.1L201.8 398.62L204.05 397.09L206.31 395.5L208.59 393.86L210.88 392.16L213.19 390.41L215.52 388.61L217.85 386.76L220.2 384.85L222.56 382.89L224.93 380.88L227.31 378.82L229.7 376.71L232.1 374.54L234.51 372.32L233.47 371.23L232.43 370.13L231.39 369.03L230.34 367.91L229.3 366.79L228.26 365.66L227.22 364.52L226.18 363.38L225.14 362.23L224.11 361.07L223.07 359.9L222.03 358.73L221 357.54L219.96 356.35L218.93 355.16L217.89 353.95L216.86 352.74L215.83 351.53L214.8 350.3L213.77 349.07L212.75 347.83L211.72 346.58L210.69 345.33L209.67 344.07L208.65 342.8L207.62 341.53L206.6 340.25L205.58 338.96L204.57 337.67L203.55 336.37L202.54 335.06L201.52 333.75L200.51 332.43L199.5 331.1L198.49 329.77L197.49 328.43L196.48 327.08L195.48 325.73L194.48 324.37L193.48 323L191.81 322.82L190.16 322.64L188.5 322.45L186.85 322.25L185.21 322.06L183.56 321.85L181.93 321.64L180.3 321.43L178.67 321.21L177.05 320.99L175.43 320.76L173.81 320.53L172.2 320.29L170.6 320.05L169 319.81L167.41 319.56L165.82 319.3L164.24 319.05L162.66 318.78L161.08 318.51L159.52 318.24L157.96 317.97L156.4 317.68L154.85 317.4L153.3 317.11L151.76 316.82L150.23 316.52L148.7 316.21L147.18 315.91L145.66 315.6L144.15 315.28L142.65 314.96L141.15 314.64L139.66 314.31L138.17 313.97L136.69 313.64L135.22 313.3L133.75 312.95L132.29 312.6L130.84 312.25L130.68 313L130.52 313.74ZM366.45 312.77L364.98 313.12L363.51 313.47L362.03 313.81L360.54 314.15L359.05 314.48L357.55 314.81L356.05 315.14L354.53 315.45L353.02 315.77L351.49 316.08L349.97 316.39L348.43 316.69L346.89 316.99L345.34 317.28L343.79 317.57L342.23 317.85L340.67 318.13L339.1 318.4L337.53 318.67L335.94 318.94L334.36 319.2L332.77 319.45L331.17 319.7L329.57 319.95L327.96 320.19L326.35 320.43L324.73 320.66L323.11 320.89L321.48 321.11L319.85 321.33L318.21 321.54L316.57 321.75L314.93 321.96L313.27 322.16L311.62 322.35L309.96 322.54L308.29 322.72L306.62 322.9L305.64 324.27L304.65 325.63L303.66 326.98L302.67 328.33L301.67 329.66L300.67 331L299.67 332.32L298.67 333.64L297.67 334.95L296.66 336.25L295.66 337.55L294.65 338.84L293.63 340.13L292.62 341.4L291.61 342.67L290.59 343.94L289.57 345.19L288.55 346.44L287.53 347.69L286.51 348.92L285.49 350.15L284.46 351.37L283.44 352.59L282.41 353.79L281.38 354.99L280.35 356.19L279.32 357.37L278.29 358.55L277.26 359.72L276.23 360.89L275.2 362.04L274.16 363.19L273.13 364.33L272.09 365.47L271.06 366.6L270.02 367.72L268.99 368.83L267.95 369.94L266.92 371.04L265.88 372.13L268.29 374.33L270.69 376.48L273.08 378.58L275.46 380.63L277.84 382.63L280.2 384.57L282.55 386.47L284.89 388.31L287.21 390.1L289.52 391.84L291.82 393.52L294.1 395.15L296.37 396.73L298.62 398.25L300.85 399.72L303.06 401.14L305.25 402.5L307.43 403.8L309.58 405.05L311.71 406.25L313.82 407.39L315.91 408.47L317.98 409.5L320.02 410.47L322.03 411.38L324.02 412.24L325.98 413.04L327.92 413.78L329.82 414.46L331.7 415.09L333.55 415.66L335.37 416.17L337.16 416.62L338.92 417.01L340.64 417.34L342.33 417.61L343.99 417.82L345.61 417.97L347.19 418.07L348.74 418.1L349.08 418.09L349.42 418.09L349.75 418.08L350.08 418.07L350.41 418.06L350.74 418.04L351.06 418.02L351.38 418L351.7 417.97L352.01 417.94L352.33 417.91L352.63 417.88L352.94 417.84L353.24 417.8L353.55 417.75L353.84 417.7L354.14 417.65L354.43 417.6L354.72 417.54L355.01 417.48L355.29 417.41L355.57 417.35L355.85 417.28L356.12 417.2L356.39 417.12L356.66 417.04L356.93 416.96L357.19 416.87L357.45 416.78L357.7 416.68L357.96 416.58L358.21 416.48L358.45 416.37L358.7 416.26L358.94 416.15L359.17 416.03L359.41 415.91L359.64 415.79L359.86 415.66L360.09 415.53L361.07 414.91L362.03 414.2L362.95 413.42L363.85 412.56L364.72 411.63L365.56 410.62L366.37 409.53L367.14 408.38L367.89 407.15L368.61 405.86L369.29 404.5L369.95 403.07L370.57 401.57L371.16 400.01L371.72 398.38L372.24 396.7L372.74 394.95L373.2 393.14L373.63 391.28L374.02 389.35L374.38 387.37L374.71 385.34L375 383.25L375.26 381.11L375.48 378.92L375.67 376.68L375.82 374.39L375.94 372.05L376.02 369.67L376.07 367.24L376.08 364.77L376.05 362.26L375.99 359.7L375.89 357.11L375.75 354.47L375.57 351.8L375.36 349.09L375.11 346.35L374.82 343.57L374.49 340.76L374.41 340.07L374.32 339.38L374.23 338.69L374.14 337.99L374.05 337.3L373.95 336.6L373.86 335.91L373.76 335.21L373.65 334.51L373.55 333.8L373.44 333.1L373.33 332.4L373.22 331.69L373.1 330.98L372.99 330.27L372.87 329.56L372.75 328.85L372.62 328.13L372.5 327.42L372.37 326.7L372.24 325.98L372.1 325.26L371.97 324.54L371.83 323.82L371.69 323.1L371.55 322.37L371.41 321.64L371.26 320.91L371.11 320.18L370.97 319.45L370.81 318.72L370.66 317.98L370.5 317.25L370.35 316.51L370.19 315.77L370.02 315.03L369.86 314.29L369.7 313.54L369.53 312.8L369.36 312.05L367.91 312.41L366.45 312.77ZM275.33 325.28L274.33 325.33L273.32 325.37L272.32 325.42L271.31 325.46L270.3 325.5L269.3 325.54L268.29 325.57L267.27 325.6L266.26 325.64L265.25 325.66L264.23 325.69L263.22 325.72L262.2 325.74L261.18 325.76L260.16 325.78L259.14 325.79L258.12 325.81L257.09 325.82L256.07 325.83L255.04 325.84L254.02 325.85L252.99 325.86L251.96 325.86L250.93 325.86L249.9 325.86L248.88 325.86L247.86 325.86L246.85 325.85L245.83 325.84L244.82 325.83L243.8 325.82L242.79 325.81L241.78 325.79L240.76 325.77L239.75 325.75L238.74 325.73L237.74 325.71L236.73 325.68L235.72 325.65L234.72 325.62L233.72 325.59L232.71 325.56L231.71 325.53L230.72 325.49L229.72 325.46L228.72 325.42L227.73 325.38L226.73 325.34L225.74 325.3L224.75 325.26L223.76 325.22L222.77 325.17L223.78 326.45L224.79 327.72L225.8 328.98L226.81 330.24L227.83 331.48L228.84 332.72L229.85 333.95L230.86 335.17L231.88 336.38L232.89 337.59L233.91 338.78L234.92 339.97L235.94 341.15L236.96 342.32L237.97 343.48L238.99 344.63L240.01 345.78L241.03 346.91L242.05 348.04L243.06 349.16L244.08 350.27L245.1 351.37L246.12 352.46L247.14 353.54L248.16 354.62L249.18 355.68L250.2 356.74L251.21 355.68L252.22 354.62L253.23 353.54L254.24 352.46L255.25 351.37L256.26 350.27L257.27 349.16L258.28 348.04L259.29 346.91L260.3 345.78L261.31 344.63L262.32 343.48L263.33 342.32L264.34 341.15L265.35 339.97L266.35 338.78L267.36 337.59L268.36 336.38L269.37 335.17L270.37 333.95L271.37 332.72L272.36 331.48L273.36 330.24L274.35 328.98L275.35 327.72L276.34 326.45L277.32 325.17L276.33 325.23L275.33 325.28ZM247.75 146.34L246.63 146.34L245.5 146.35L244.38 146.36L243.26 146.38L242.14 146.39L241.02 146.41L239.9 146.44L238.77 146.46L237.65 146.49L236.53 146.52L235.42 146.55L234.3 146.58L233.18 146.62L232.06 146.66L230.94 146.7L229.83 146.74L228.71 146.79L227.6 146.84L226.48 146.89L225.37 146.94L224.25 147L223.14 147.06L222.03 147.12L220.91 147.18L219.8 147.24L218.69 147.31L217.58 147.38L216.47 147.46L215.36 147.53L214.25 147.61L213.15 147.69L212.04 147.77L210.93 147.85L209.83 147.94L208.72 148.03L207.62 148.12L206.52 148.21L205.41 148.3L204.8 149.19L204.19 150.07L203.58 150.96L202.97 151.85L202.36 152.75L201.75 153.65L201.14 154.55L200.54 155.45L199.93 156.36L199.33 157.27L198.72 158.19L198.12 159.1L197.52 160.02L196.92 160.95L196.32 161.87L195.72 162.8L195.13 163.74L194.53 164.67L193.94 165.61L193.34 166.55L192.75 167.5L192.16 168.45L191.56 169.4L190.97 170.35L190.38 171.31L189.8 172.27L189.21 173.23L188.62 174.19L188.03 175.16L187.45 176.13L186.86 177.1L186.28 178.08L185.7 179.06L185.12 180.04L184.53 181.03L183.95 182.01L183.37 183L182.8 183.99L182.22 184.99L181.64 185.99L181.09 186.96L180.53 187.93L179.98 188.9L179.44 189.87L178.89 190.85L178.34 191.82L177.8 192.8L177.26 193.77L176.72 194.75L176.19 195.73L175.65 196.71L175.12 197.69L174.59 198.67L174.07 199.65L173.54 200.63L173.02 201.62L172.5 202.6L171.98 203.58L171.46 204.57L170.95 205.55L170.44 206.54L169.93 207.53L169.42 208.51L168.92 209.5L168.42 210.49L167.92 211.48L167.42 212.47L166.93 213.46L166.44 214.45L165.95 215.44L165.47 216.43L164.98 217.42L164.5 218.41L164.02 219.4L163.55 220.39L163.08 221.38L162.61 222.37L162.14 223.36L161.68 224.35L161.22 225.35L161.69 226.34L162.16 227.33L162.63 228.32L163.1 229.31L163.58 230.3L164.06 231.29L164.54 232.28L165.02 233.26L165.51 234.25L165.99 235.24L166.48 236.23L166.98 237.21L167.47 238.2L167.97 239.18L168.47 240.17L168.97 241.15L169.47 242.14L169.98 243.12L170.49 244.1L171 245.09L171.51 246.07L172.03 247.05L172.55 248.03L173.07 249.01L173.59 249.99L174.12 250.97L174.64 251.95L175.17 252.92L175.71 253.9L176.24 254.88L176.78 255.85L177.32 256.83L177.87 257.8L178.41 258.78L178.96 259.75L179.51 260.72L180.06 261.69L180.62 262.67L181.18 263.64L181.74 264.61L182.32 265.6L182.89 266.58L183.47 267.57L184.06 268.55L184.64 269.53L185.22 270.51L185.8 271.48L186.39 272.45L186.98 273.42L187.56 274.39L188.15 275.35L188.74 276.31L189.33 277.27L189.92 278.23L190.51 279.18L191.11 280.13L191.7 281.08L192.3 282.02L192.89 282.96L193.49 283.9L194.09 284.84L194.69 285.77L195.29 286.7L195.89 287.63L196.49 288.56L197.09 289.48L197.69 290.4L198.3 291.32L198.9 292.23L199.51 293.14L200.11 294.05L200.72 294.95L201.33 295.86L201.94 296.75L202.55 297.65L203.16 298.55L203.77 299.44L204.38 300.32L205 301.21L205.61 302.09L206.71 302.18L207.8 302.26L208.9 302.35L210 302.43L211.1 302.51L212.2 302.59L213.3 302.67L214.4 302.74L215.51 302.81L216.61 302.88L217.72 302.95L218.82 303.02L219.93 303.08L221.04 303.14L222.14 303.2L223.25 303.26L224.36 303.32L225.47 303.37L226.58 303.42L227.69 303.47L228.81 303.52L229.92 303.56L231.03 303.61L232.14 303.65L233.26 303.68L234.37 303.72L235.49 303.75L236.6 303.78L237.72 303.81L238.83 303.84L239.95 303.86L241.07 303.88L242.18 303.9L243.3 303.92L244.41 303.93L245.53 303.94L246.65 303.95L247.77 303.96L248.88 303.96L250 303.96L251.12 303.96L252.25 303.96L253.37 303.95L254.5 303.94L255.62 303.93L256.74 303.92L257.86 303.9L258.98 303.88L260.1 303.86L261.23 303.84L262.35 303.81L263.47 303.78L264.58 303.75L265.7 303.71L266.82 303.68L267.94 303.64L269.06 303.6L270.17 303.55L271.29 303.51L272.4 303.46L273.52 303.41L274.63 303.35L275.75 303.3L276.86 303.24L277.97 303.18L279.09 303.12L280.2 303.05L281.31 302.98L282.42 302.91L283.53 302.84L284.64 302.77L285.75 302.69L286.85 302.61L287.96 302.53L289.07 302.44L290.17 302.36L291.28 302.27L292.38 302.18L293.48 302.09L294.59 301.99L295.2 301.11L295.81 300.22L296.42 299.34L297.03 298.44L297.64 297.55L298.25 296.65L298.86 295.75L299.46 294.84L300.07 293.94L300.67 293.02L301.28 292.11L301.88 291.19L302.48 290.27L303.08 289.35L303.68 288.42L304.28 287.49L304.87 286.56L305.47 285.62L306.06 284.68L306.66 283.74L307.25 282.8L307.84 281.85L308.44 280.9L309.03 279.95L309.62 278.99L310.2 278.03L310.79 277.07L311.38 276.1L311.97 275.14L312.55 274.16L313.14 273.19L313.72 272.22L314.3 271.24L314.88 270.25L315.47 269.27L316.05 268.28L316.63 267.29L317.2 266.3L317.78 265.31L318.36 264.31L318.91 263.34L319.47 262.37L320.01 261.4L320.56 260.42L321.11 259.45L321.65 258.48L322.19 257.5L322.73 256.52L323.26 255.55L323.8 254.57L324.33 253.59L324.86 252.61L325.39 251.63L325.91 250.65L326.43 249.66L326.95 248.68L327.47 247.7L327.99 246.71L328.5 245.73L329.01 244.74L329.52 243.76L330.03 242.77L330.54 241.78L331.04 240.79L331.54 239.81L332.04 238.82L332.53 237.83L333.03 236.84L333.52 235.85L334.01 234.86L334.49 233.87L334.98 232.88L335.46 231.89L335.94 230.9L336.42 229.91L336.9 228.92L337.37 227.92L337.84 226.93L338.31 225.94L338.78 224.95L338.31 223.96L337.84 222.97L337.37 221.98L336.9 220.99L336.42 220L335.94 219.01L335.46 218.02L334.98 217.03L334.49 216.04L334.01 215.06L333.52 214.07L333.02 213.08L332.53 212.1L332.03 211.11L331.53 210.13L331.03 209.14L330.53 208.16L330.02 207.17L329.51 206.19L329 205.21L328.49 204.23L327.97 203.25L327.45 202.27L326.93 201.29L326.41 200.31L325.88 199.33L325.36 198.35L324.83 197.37L324.29 196.39L323.76 195.42L323.22 194.44L322.68 193.47L322.13 192.49L321.59 191.52L321.04 190.55L320.49 189.57L319.94 188.6L319.38 187.63L318.82 186.66L318.26 185.69L317.68 184.7L317.11 183.71L316.53 182.73L315.94 181.75L315.36 180.77L314.78 179.79L314.2 178.81L313.61 177.84L313.02 176.87L312.44 175.91L311.85 174.94L311.26 173.98L310.67 173.02L310.08 172.07L309.49 171.12L308.89 170.17L308.3 169.22L307.7 168.27L307.11 167.33L306.51 166.39L305.91 165.46L305.31 164.52L304.71 163.59L304.11 162.66L303.51 161.74L302.91 160.82L302.31 159.9L301.7 158.98L301.1 158.07L300.49 157.16L299.89 156.25L299.28 155.34L298.67 154.44L298.06 153.54L297.45 152.64L296.84 151.75L296.23 150.86L295.62 149.97L295 149.09L294.39 148.21L293.29 148.12L292.2 148.03L291.1 147.95L290 147.87L288.9 147.79L287.8 147.71L286.7 147.63L285.6 147.56L284.49 147.48L283.39 147.41L282.28 147.35L281.18 147.28L280.07 147.21L278.96 147.15L277.86 147.09L276.75 147.03L275.64 146.98L274.53 146.93L273.42 146.87L272.31 146.82L271.19 146.78L270.08 146.73L268.97 146.69L267.86 146.65L266.74 146.61L265.63 146.58L264.51 146.54L263.4 146.51L262.28 146.48L261.17 146.46L260.05 146.43L258.93 146.41L257.82 146.39L256.7 146.38L255.59 146.36L254.47 146.35L253.35 146.34L252.23 146.34L251.12 146.33L250 146.33L248.88 146.33L247.75 146.34ZM148.55 254.8L147.99 256.25L147.44 257.71L146.89 259.17L146.35 260.62L145.81 262.08L145.28 263.53L144.76 264.99L144.24 266.44L143.72 267.89L143.22 269.34L142.71 270.79L142.22 272.23L141.73 273.68L141.25 275.12L140.77 276.56L140.3 278L139.83 279.44L139.37 280.87L138.92 282.31L138.48 283.74L138.04 285.16L137.61 286.59L137.19 288.01L136.77 289.43L136.36 290.84L137.8 291.19L139.24 291.54L140.69 291.88L142.14 292.21L143.6 292.54L145.06 292.86L146.53 293.18L148 293.5L149.48 293.81L150.96 294.11L152.44 294.41L153.93 294.71L155.43 295L156.93 295.29L158.43 295.57L159.94 295.85L161.45 296.13L162.97 296.4L164.49 296.66L166.01 296.93L167.54 297.18L169.08 297.44L170.61 297.68L172.16 297.93L173.7 298.17L175.25 298.41L176.81 298.64L176.27 297.8L175.73 296.97L175.2 296.13L174.66 295.29L174.13 294.45L173.6 293.61L173.07 292.77L172.54 291.92L172.01 291.08L171.48 290.23L170.95 289.38L170.42 288.52L169.89 287.67L169.37 286.82L168.84 285.96L168.32 285.1L167.79 284.24L167.27 283.38L166.75 282.52L166.23 281.65L165.71 280.79L165.19 279.92L164.67 279.05L164.15 278.18L163.63 277.31L163.12 276.43L162.6 275.56L162.09 274.68L161.58 273.8L161.07 272.92L160.57 272.05L160.07 271.17L159.57 270.29L159.07 269.42L158.58 268.54L158.09 267.66L157.6 266.79L157.12 265.91L156.64 265.03L156.16 264.16L155.68 263.28L155.21 262.4L154.73 261.53L154.26 260.65L153.8 259.77L153.33 258.9L152.87 258.02L152.41 257.14L151.95 256.26L151.49 255.39L151.03 254.51L150.58 253.63L150.13 252.76L149.68 251.88L149.11 253.34L148.55 254.8ZM349.32 253.24L348.87 254.12L348.41 255L347.95 255.88L347.5 256.76L347.04 257.64L346.57 258.52L346.11 259.4L345.64 260.28L345.17 261.17L344.7 262.05L344.23 262.93L343.76 263.81L343.28 264.7L342.8 265.58L342.32 266.46L341.84 267.34L341.36 268.22L340.87 269.1L340.38 269.99L339.89 270.87L339.4 271.75L338.9 272.63L338.4 273.5L337.9 274.38L337.4 275.26L336.89 276.15L336.39 277.03L335.88 277.92L335.36 278.8L334.85 279.68L334.33 280.56L333.81 281.43L333.29 282.31L332.77 283.18L332.25 284.06L331.73 284.93L331.2 285.8L330.67 286.66L330.14 287.53L329.61 288.39L329.08 289.26L328.55 290.12L328.02 290.98L327.48 291.83L326.95 292.69L326.41 293.54L325.88 294.4L325.34 295.25L324.8 296.1L324.27 296.95L323.73 297.79L323.19 298.64L324.76 298.41L326.32 298.17L327.88 297.93L329.43 297.68L330.98 297.43L332.52 297.17L334.06 296.91L335.6 296.64L337.13 296.37L338.65 296.1L340.18 295.82L341.69 295.53L343.2 295.24L344.71 294.95L346.21 294.65L347.71 294.35L349.2 294.05L350.69 293.73L352.17 293.42L353.65 293.1L355.12 292.78L356.59 292.45L358.05 292.12L359.5 291.78L360.95 291.44L362.4 291.09L363.84 290.75L363.42 289.32L362.99 287.89L362.56 286.46L362.12 285.02L361.67 283.58L361.22 282.14L360.76 280.7L360.3 279.25L359.82 277.81L359.35 276.36L358.86 274.9L358.37 273.45L357.87 271.99L357.37 270.53L356.86 269.08L356.34 267.61L355.82 266.15L355.29 264.69L354.75 263.23L354.21 261.76L353.66 260.29L353.1 258.83L352.54 257.36L351.97 255.89L351.39 254.42L350.81 252.95L350.22 251.49L349.77 252.36L349.32 253.24ZM113.33 165.63L112.61 165.86L111.9 166.1L111.19 166.33L110.47 166.56L109.77 166.8L109.06 167.03L108.35 167.27L107.65 167.51L106.94 167.74L106.24 167.98L105.54 168.22L104.84 168.46L104.15 168.71L103.45 168.95L102.76 169.19L102.07 169.44L101.38 169.68L100.69 169.93L100 170.18L99.32 170.43L98.64 170.68L97.96 170.93L97.29 171.19L96.61 171.44L95.94 171.7L95.27 171.95L94.6 172.21L93.94 172.47L93.28 172.73L92.62 172.99L91.96 173.25L91.3 173.52L90.65 173.78L90 174.05L89.36 174.32L88.71 174.59L88.07 174.86L87.43 175.14L84.84 176.25L82.29 177.39L79.79 178.54L77.34 179.71L74.94 180.89L72.59 182.09L70.29 183.3L68.04 184.52L65.85 185.76L63.72 187L61.64 188.25L59.61 189.52L57.65 190.79L55.74 192.06L53.89 193.35L52.11 194.64L50.38 195.93L48.72 197.23L47.12 198.53L45.59 199.83L44.12 201.14L42.71 202.44L41.38 203.75L40.11 205.05L38.91 206.35L37.79 207.65L36.73 208.94L35.75 210.23L34.84 211.52L34 212.8L33.24 214.07L32.55 215.33L31.95 216.59L31.42 217.83L30.96 219.06L30.59 220.29L30.3 221.5L30.09 222.7L29.97 223.88L29.93 225.05L29.97 226.22L30.09 227.4L30.3 228.6L30.59 229.81L30.96 231.03L31.42 232.26L31.95 233.51L32.55 234.76L33.24 236.02L34 237.29L34.84 238.56L35.75 239.85L36.73 241.13L37.79 242.42L38.91 243.72L40.11 245.02L41.38 246.32L42.71 247.62L44.12 248.93L45.59 250.23L47.12 251.53L48.72 252.83L50.38 254.13L52.11 255.42L53.89 256.71L55.74 257.99L57.65 259.27L59.61 260.54L61.64 261.8L63.72 263.06L65.85 264.3L68.04 265.54L70.29 266.76L72.59 267.98L74.94 269.18L77.34 270.36L79.79 271.54L82.29 272.7L84.84 273.84L87.43 274.96L88.08 275.24L88.73 275.51L89.38 275.78L90.03 276.05L90.68 276.32L91.34 276.59L92 276.85L92.67 277.12L93.33 277.38L94 277.65L94.67 277.91L95.34 278.17L96.01 278.43L96.69 278.69L97.37 278.94L98.05 279.2L98.74 279.46L99.42 279.71L100.11 279.96L100.8 280.22L101.49 280.47L102.19 280.72L102.89 280.97L103.59 281.21L104.29 281.46L104.99 281.71L105.7 281.95L106.4 282.19L107.11 282.43L107.83 282.68L108.54 282.92L109.26 283.15L109.97 283.39L110.69 283.63L111.42 283.86L112.14 284.1L112.87 284.33L113.59 284.56L114.32 284.79L115.06 285.02L115.47 283.58L115.9 282.13L116.33 280.68L116.77 279.23L117.21 277.78L117.66 276.32L118.12 274.86L118.58 273.39L119.05 271.92L119.53 270.45L120.02 268.98L120.51 267.51L121 266.03L121.51 264.55L122.02 263.07L122.54 261.58L123.06 260.09L123.59 258.6L124.13 257.11L124.67 255.62L125.22 254.12L125.78 252.62L126.35 251.12L126.92 249.61L127.49 248.11L128.08 246.6L128.67 245.09L129.27 243.57L129.87 242.06L130.48 240.54L131.1 239.02L131.72 237.5L132.35 235.97L132.99 234.45L133.63 232.92L134.28 231.39L134.94 229.85L135.61 228.32L136.28 226.78L136.95 225.25L136.27 223.7L135.59 222.16L134.92 220.62L134.26 219.08L133.6 217.54L132.95 216L132.3 214.47L131.66 212.94L131.03 211.41L130.41 209.88L129.79 208.36L129.18 206.83L128.57 205.31L127.97 203.79L127.38 202.28L126.8 200.76L126.22 199.25L125.65 197.74L125.08 196.23L124.52 194.73L123.97 193.23L123.43 191.73L122.89 190.23L122.36 188.73L121.83 187.24L121.32 185.75L120.8 184.26L120.3 182.78L119.8 181.3L119.31 179.82L118.82 178.34L118.35 176.87L117.87 175.39L117.41 173.93L116.95 172.46L116.5 171L116.05 169.54L115.62 168.08L115.18 166.62L114.76 165.17L114.04 165.4L113.33 165.63ZM384 167.97L383.57 169.41L383.14 170.87L382.69 172.32L382.24 173.78L381.78 175.24L381.32 176.71L380.85 178.17L380.37 179.64L379.89 181.12L379.4 182.59L378.9 184.07L378.39 185.55L377.88 187.03L377.37 188.52L376.84 190L376.31 191.49L375.77 192.99L375.23 194.48L374.68 195.98L374.12 197.48L373.56 198.98L372.99 200.49L372.41 201.99L371.82 203.5L371.23 205.01L370.64 206.53L370.03 208.04L369.42 209.56L368.8 211.08L368.18 212.6L367.55 214.13L366.91 215.65L366.27 217.18L365.62 218.71L364.96 220.24L364.3 221.78L363.62 223.31L362.95 224.85L363.63 226.4L364.31 227.94L364.98 229.48L365.65 231.02L366.3 232.56L366.96 234.1L367.6 235.63L368.24 237.16L368.87 238.69L369.49 240.22L370.11 241.74L370.72 243.27L371.33 244.79L371.93 246.31L372.52 247.82L373.1 249.34L373.68 250.85L374.25 252.36L374.82 253.87L375.38 255.37L375.93 256.87L376.47 258.37L377.01 259.87L377.54 261.37L378.07 262.86L378.59 264.35L379.1 265.84L379.6 267.32L380.1 268.8L380.59 270.28L381.08 271.76L381.56 273.23L382.03 274.7L382.49 276.17L382.95 277.64L383.4 279.1L383.85 280.56L384.29 282.02L384.72 283.47L385.14 284.93L385.86 284.7L386.58 284.47L387.29 284.23L388 284L388.72 283.77L389.43 283.54L390.14 283.3L390.84 283.07L391.55 282.83L392.26 282.59L392.96 282.35L393.66 282.12L394.36 281.88L395.06 281.63L395.76 281.39L396.45 281.15L397.14 280.91L397.83 280.66L398.52 280.41L399.21 280.17L399.9 279.92L400.58 279.67L401.26 279.42L401.94 279.17L402.62 278.91L403.29 278.66L403.96 278.4L404.63 278.15L405.3 277.89L405.96 277.63L406.63 277.37L407.29 277.11L407.94 276.84L408.6 276.58L409.25 276.31L409.9 276.05L410.54 275.78L411.19 275.51L411.83 275.24L412.47 274.96L415.06 273.84L417.61 272.71L420.11 271.56L422.56 270.39L424.96 269.21L427.31 268.01L429.61 266.8L431.86 265.58L434.05 264.34L436.19 263.1L438.27 261.85L440.29 260.58L442.26 259.31L444.17 258.04L446.01 256.75L447.8 255.46L449.53 254.17L451.19 252.87L452.79 251.57L454.33 250.27L455.8 248.96L457.2 247.66L458.54 246.35L459.81 245.05L461.01 243.75L462.14 242.45L463.2 241.15L464.19 239.86L465.1 238.58L465.94 237.3L466.71 236.03L467.4 234.77L468.01 233.51L468.55 232.27L469 231.03L469.38 229.81L469.68 228.6L469.89 227.4L470.03 226.22L470.07 225.05L470.03 223.88L469.91 222.7L469.7 221.5L469.41 220.29L469.04 219.07L468.58 217.84L468.05 216.59L467.45 215.34L466.76 214.08L466 212.81L465.16 211.54L464.25 210.25L463.27 208.97L462.21 207.67L461.09 206.38L459.89 205.08L458.62 203.78L457.29 202.48L455.88 201.17L454.41 199.87L452.88 198.57L451.28 197.27L449.62 195.97L447.89 194.68L446.11 193.39L444.26 192.11L442.35 190.83L440.39 189.56L438.36 188.3L436.28 187.04L434.15 185.8L431.96 184.56L429.71 183.33L427.41 182.12L425.06 180.92L422.66 179.73L420.21 178.56L417.71 177.4L415.16 176.26L412.57 175.14L411.91 174.86L411.26 174.59L410.6 174.32L409.94 174.05L409.28 173.78L408.62 173.51L407.95 173.25L407.29 172.98L406.62 172.72L405.95 172.45L405.27 172.19L404.6 171.93L403.92 171.67L403.24 171.41L402.56 171.15L401.87 170.9L401.18 170.64L400.5 170.39L399.81 170.13L399.11 169.88L398.42 169.63L397.72 169.38L397.02 169.13L396.32 168.89L395.62 168.64L394.91 168.39L394.21 168.15L393.5 167.91L392.79 167.66L392.08 167.42L391.36 167.18L390.65 166.94L389.93 166.71L389.21 166.47L388.49 166.23L387.76 166L387.04 165.77L386.31 165.53L385.58 165.3L384.85 165.07L384.43 166.52L384 167.97ZM173.58 151.93L172.02 152.17L170.47 152.42L168.92 152.67L167.38 152.93L165.84 153.19L164.3 153.45L162.77 153.72L161.25 154L159.73 154.27L158.21 154.56L156.7 154.84L155.19 155.13L153.69 155.43L152.19 155.73L150.7 156.03L149.21 156.33L147.73 156.64L146.25 156.96L144.78 157.28L143.32 157.6L141.85 157.92L140.4 158.25L138.95 158.58L137.5 158.92L136.07 159.25L136.49 160.68L136.91 162.11L137.34 163.54L137.78 164.98L138.23 166.42L138.68 167.86L139.14 169.3L139.61 170.75L140.08 172.19L140.56 173.64L141.04 175.1L141.53 176.55L142.03 178.01L142.53 179.47L143.04 180.92L143.56 182.39L144.09 183.85L144.62 185.31L145.15 186.77L145.7 188.24L146.24 189.71L146.8 191.17L147.36 192.64L147.93 194.11L148.51 195.58L149.09 197.05L149.68 198.51L150.13 197.64L150.58 196.76L151.03 195.88L151.49 195.01L151.95 194.13L152.41 193.25L152.87 192.38L153.33 191.5L153.79 190.62L154.26 189.75L154.73 188.87L155.2 187.99L155.67 187.12L156.14 186.24L156.62 185.36L157.1 184.48L157.58 183.61L158.06 182.73L158.54 181.85L159.03 180.98L159.52 180.1L160.01 179.22L160.51 178.35L161 177.47L161.5 176.59L162 175.72L162.5 174.84L163.01 173.95L163.52 173.07L164.03 172.18L164.54 171.3L165.05 170.42L165.57 169.54L166.09 168.66L166.61 167.79L167.13 166.92L167.65 166.04L168.18 165.17L168.7 164.3L169.23 163.44L169.76 162.57L170.29 161.71L170.82 160.84L171.35 159.98L171.88 159.12L172.42 158.26L172.95 157.41L173.49 156.55L174.02 155.7L174.56 154.85L175.1 154L175.63 153.15L176.17 152.31L176.71 151.46L175.14 151.69L173.58 151.93ZM324.17 153.13L324.71 153.97L325.24 154.81L325.78 155.65L326.31 156.49L326.85 157.33L327.38 158.18L327.92 159.02L328.45 159.87L328.98 160.72L329.51 161.57L330.04 162.43L330.57 163.28L331.1 164.14L331.63 165L332.15 165.86L332.67 166.72L333.2 167.58L333.72 168.45L334.23 169.31L334.75 170.18L335.26 171.05L335.78 171.92L336.29 172.79L336.79 173.67L337.3 174.54L337.81 175.42L338.32 176.3L338.83 177.17L339.34 178.05L339.84 178.93L340.33 179.8L340.83 180.68L341.32 181.56L341.81 182.44L342.3 183.31L342.78 184.19L343.27 185.07L343.74 185.94L344.22 186.82L344.7 187.7L345.17 188.57L345.64 189.45L346.1 190.33L346.57 191.2L347.03 192.08L347.49 192.96L347.95 193.83L348.41 194.71L348.87 195.59L349.32 196.46L349.77 197.34L350.22 198.22L350.79 196.76L351.35 195.3L351.91 193.85L352.46 192.39L353.01 190.93L353.55 189.48L354.09 188.02L354.62 186.57L355.14 185.11L355.66 183.66L356.18 182.21L356.68 180.76L357.19 179.31L357.68 177.86L358.17 176.42L358.66 174.98L359.13 173.54L359.6 172.1L360.07 170.66L360.53 169.22L360.98 167.79L361.42 166.36L361.86 164.93L362.29 163.51L362.71 162.09L363.13 160.67L363.54 159.25L362.1 158.91L360.66 158.56L359.21 158.22L357.76 157.89L356.3 157.56L354.84 157.24L353.37 156.92L351.9 156.6L350.42 156.29L348.94 155.99L347.46 155.68L345.97 155.39L344.47 155.09L342.97 154.81L341.47 154.52L339.96 154.25L338.45 153.97L336.93 153.7L335.41 153.43L333.89 153.17L332.36 152.92L330.83 152.66L329.29 152.41L327.75 152.17L326.2 151.93L324.65 151.69L323.1 151.46L323.63 152.29L324.17 153.13ZM150.92 32L150.58 32.01L150.25 32.02L149.92 32.03L149.59 32.04L149.26 32.06L148.94 32.08L148.62 32.1L148.3 32.13L147.99 32.15L147.67 32.19L147.37 32.22L147.06 32.26L146.76 32.3L146.45 32.35L146.16 32.39L145.86 32.45L145.57 32.5L145.28 32.56L144.99 32.62L144.71 32.68L144.43 32.75L144.15 32.82L143.88 32.9L143.61 32.98L143.34 33.06L143.07 33.14L142.81 33.23L142.55 33.32L142.3 33.42L142.04 33.52L141.79 33.62L141.55 33.73L141.3 33.83L141.06 33.95L140.83 34.06L140.59 34.18L140.36 34.31L140.14 34.44L139.91 34.57L138.93 35.19L137.97 35.9L137.05 36.68L136.15 37.54L135.28 38.47L134.44 39.48L133.63 40.56L132.86 41.72L132.11 42.94L131.39 44.24L130.71 45.6L130.05 47.03L129.43 48.53L128.84 50.09L128.28 51.72L127.76 53.4L127.26 55.15L126.8 56.96L126.37 58.82L125.98 60.75L125.62 62.72L125.29 64.76L125 66.85L124.74 68.99L124.52 71.18L124.33 73.42L124.18 75.71L124.06 78.04L123.98 80.43L123.93 82.86L123.92 85.33L123.95 87.84L124.01 90.4L124.11 92.99L124.25 95.63L124.43 98.3L124.64 101.01L124.89 103.75L125.18 106.53L125.51 109.34L125.6 110.03L125.69 110.72L125.79 111.41L125.88 112.1L125.98 112.8L126.08 113.49L126.18 114.19L126.28 114.89L126.39 115.59L126.49 116.29L126.6 117L126.71 117.7L126.83 118.41L126.94 119.11L127.06 119.82L127.17 120.53L127.3 121.24L127.42 121.96L127.54 122.67L127.67 123.38L127.8 124.1L127.93 124.82L128.06 125.54L128.2 126.26L128.33 126.98L128.47 127.7L128.61 128.43L128.76 129.15L128.9 129.88L129.05 130.61L129.2 131.33L129.35 132.06L129.5 132.8L129.66 133.53L129.82 134.26L129.98 135L130.14 135.73L130.3 136.47L130.47 137.21L130.64 137.95L132.09 137.59L133.55 137.23L135.02 136.88L136.49 136.53L137.97 136.19L139.46 135.85L140.95 135.52L142.45 135.19L143.95 134.86L145.47 134.55L146.98 134.23L148.51 133.92L150.03 133.61L151.57 133.31L153.11 133.01L154.66 132.72L156.21 132.43L157.77 132.15L159.33 131.87L160.9 131.6L162.47 131.33L164.06 131.06L165.64 130.8L167.23 130.55L168.83 130.3L170.43 130.05L172.04 129.81L173.65 129.57L175.27 129.34L176.89 129.11L178.52 128.89L180.15 128.67L181.79 128.46L183.43 128.25L185.07 128.04L186.73 127.84L188.38 127.65L190.04 127.46L191.71 127.28L193.38 127.1L194.36 125.73L195.35 124.37L196.34 123.02L197.33 121.67L198.33 120.34L199.33 119L200.33 117.68L201.33 116.36L202.33 115.05L203.34 113.75L204.34 112.45L205.35 111.16L206.37 109.87L207.38 108.6L208.39 107.33L209.41 106.06L210.43 104.81L211.45 103.56L212.47 102.31L213.49 101.08L214.51 99.85L215.54 98.63L216.56 97.41L217.59 96.21L218.62 95.01L219.65 93.81L220.68 92.63L221.71 91.45L222.74 90.28L223.77 89.11L224.8 87.96L225.84 86.81L226.87 85.67L227.91 84.53L228.94 83.4L229.98 82.28L231.01 81.17L232.05 80.06L233.08 78.96L234.12 77.87L231.71 75.67L229.31 73.52L226.92 71.42L224.54 69.37L222.16 67.37L219.8 65.43L217.45 63.53L215.11 61.69L212.79 59.9L210.48 58.16L208.18 56.48L205.9 54.85L203.63 53.27L201.38 51.75L199.15 50.28L196.94 48.86L194.75 47.5L192.57 46.2L190.42 44.95L188.29 43.75L186.18 42.61L184.09 41.53L182.02 40.5L179.98 39.53L177.97 38.62L175.98 37.76L174.02 36.96L172.08 36.22L170.18 35.54L168.3 34.91L166.45 34.34L164.63 33.83L162.84 33.38L161.08 32.99L159.36 32.66L157.67 32.39L156.01 32.18L154.39 32.03L152.81 31.93L151.26 31.9L151.26 32L150.92 32ZM346.79 31.54L345.2 31.63L343.57 31.78L341.91 32L340.22 32.27L338.49 32.61L336.73 33L334.94 33.45L333.12 33.96L331.27 34.54L329.39 35.17L327.48 35.85L325.54 36.6L323.58 37.4L321.59 38.27L319.58 39.19L317.54 40.16L315.48 41.2L313.39 42.29L311.28 43.43L309.15 44.64L307 45.89L304.83 47.21L302.64 48.58L300.43 50L298.2 51.48L295.95 53.01L293.69 54.6L291.41 56.24L289.12 57.94L286.81 59.68L284.48 61.48L282.15 63.34L279.8 65.25L277.44 67.2L275.07 69.22L272.69 71.28L270.3 73.39L267.9 75.56L265.49 77.77L266.53 78.87L267.57 79.96L268.61 81.07L269.66 82.19L270.7 83.31L271.74 84.44L272.78 85.57L273.82 86.72L274.86 87.87L275.89 89.03L276.93 90.2L277.97 91.37L279 92.55L280.04 93.74L281.07 94.94L282.11 96.14L283.14 97.35L284.17 98.57L285.2 99.8L286.23 101.03L287.25 102.27L288.28 103.51L289.31 104.77L290.33 106.03L291.35 107.29L292.38 108.57L293.4 109.85L294.42 111.14L295.43 112.43L296.45 113.73L297.46 115.04L298.48 116.35L299.49 117.67L300.5 119L301.51 120.33L302.51 121.67L303.52 123.02L304.52 124.37L305.52 125.73L306.52 127.1L308.19 127.28L309.84 127.46L311.5 127.65L313.15 127.84L314.79 128.04L316.44 128.25L318.07 128.46L319.7 128.67L321.33 128.89L322.95 129.11L324.57 129.34L326.19 129.57L327.8 129.8L329.4 130.04L331 130.29L332.59 130.54L334.18 130.79L335.76 131.05L337.34 131.32L338.92 131.58L340.48 131.86L342.04 132.13L343.6 132.41L345.15 132.7L346.7 132.99L348.24 133.28L349.77 133.58L351.3 133.88L352.82 134.19L354.34 134.5L355.85 134.82L357.35 135.14L358.85 135.46L360.34 135.79L361.83 136.12L363.31 136.46L364.78 136.8L366.25 137.15L367.71 137.49L369.16 137.85L369.32 137.1L369.48 136.36L369.64 135.61L369.8 134.87L369.96 134.12L370.11 133.38L370.26 132.64L370.41 131.9L370.56 131.16L370.71 130.42L370.86 129.68L371 128.94L371.14 128.21L371.28 127.47L371.42 126.74L371.56 126.01L371.69 125.27L371.82 124.54L371.96 123.82L372.08 123.09L372.21 122.36L372.34 121.64L372.46 120.91L372.58 120.19L372.7 119.47L372.81 118.75L372.93 118.03L373.04 117.32L373.15 116.6L373.25 115.89L373.36 115.18L373.46 114.47L373.56 113.76L373.66 113.05L373.75 112.35L373.85 111.64L373.94 110.94L374.02 110.24L374.11 109.54L374.19 108.85L374.51 106.04L374.8 103.26L375.04 100.52L375.25 97.81L375.41 95.13L375.54 92.5L375.64 89.9L375.69 87.35L375.71 84.84L375.7 82.36L375.64 79.94L375.55 77.55L375.43 75.22L375.27 72.93L375.07 70.69L374.84 68.5L374.58 66.36L374.28 64.27L373.94 62.24L373.58 60.26L373.17 58.34L372.74 56.48L372.27 54.67L371.77 52.93L371.24 51.25L370.67 49.62L370.07 48.07L369.44 46.57L368.78 45.15L368.09 43.79L367.37 42.5L366.61 41.28L365.83 40.13L365.01 39.05L364.16 38.05L363.29 37.12L362.38 36.26L361.45 35.49L360.49 34.79L359.49 34.17L359.26 34.05L359.03 33.93L358.8 33.81L358.56 33.69L358.32 33.58L358.08 33.47L357.83 33.37L357.59 33.26L357.34 33.16L357.09 33.07L356.83 32.97L356.57 32.88L356.32 32.79L356.05 32.71L355.79 32.62L355.52 32.55L355.25 32.47L354.98 32.4L354.7 32.33L354.43 32.26L354.15 32.2L353.86 32.14L353.58 32.08L353.29 32.03L353 31.98L352.7 31.93L352.4 31.89L352.1 31.85L351.8 31.81L351.49 31.77L351.18 31.74L350.87 31.71L350.55 31.69L350.23 31.67L349.91 31.65L349.58 31.64L349.26 31.62L348.92 31.62L348.59 31.61L348.25 31.61L348.25 31.51L348.35 31.51L348.35 9.61L348.25 9.61L348.25 31.51L346.79 31.54ZM247.69 95.48L246.68 96.56L245.67 97.64L244.65 98.73L243.64 99.83L242.63 100.94L241.62 102.06L240.61 103.19L239.6 104.32L238.59 105.47L237.58 106.62L236.57 107.78L235.56 108.95L234.55 110.13L233.55 111.32L232.54 112.51L231.54 113.72L230.54 114.93L229.53 116.15L228.54 117.38L227.54 118.62L226.54 119.86L225.55 121.12L224.55 122.38L223.56 123.65L222.58 124.93L223.58 124.87L224.57 124.82L225.58 124.77L226.58 124.73L227.58 124.68L228.59 124.64L229.6 124.6L230.61 124.56L231.62 124.53L232.63 124.49L233.64 124.46L234.65 124.43L235.67 124.41L236.69 124.38L237.7 124.36L238.72 124.34L239.74 124.32L240.76 124.3L241.79 124.29L242.81 124.28L243.83 124.27L244.86 124.26L245.89 124.25L246.91 124.24L247.94 124.24L248.97 124.24L250 124.24L251.02 124.24L252.04 124.24L253.05 124.25L254.07 124.25L255.09 124.26L256.1 124.28L257.11 124.29L258.13 124.31L259.14 124.33L260.15 124.35L261.16 124.37L262.16 124.39L263.17 124.42L264.18 124.45L265.18 124.48L266.18 124.51L267.19 124.54L268.19 124.57L269.19 124.61L270.18 124.64L271.18 124.68L272.18 124.72L273.17 124.76L274.16 124.8L275.15 124.84L276.14 124.88L277.13 124.93L276.12 123.65L275.11 122.38L274.1 121.12L273.09 119.86L272.08 118.62L271.06 117.38L270.05 116.15L269.04 114.93L268.02 113.72L267.01 112.51L265.99 111.32L264.98 110.13L263.96 108.95L262.94 107.78L261.93 106.62L260.91 105.47L259.89 104.32L258.87 103.19L257.86 102.06L256.84 100.94L255.82 99.83L254.8 98.73L253.78 97.64L252.76 96.56L251.74 95.48L250.72 94.42L249.7 93.36L248.7 94.42L247.69 95.48Z" id="aKqUYn2Jc"></path><path d="M151.16 10.89L151.16 10.89L151.16 10.89L151.16 10.89Z" id="f1YH9EdrZe"></path><path d="M250 179.92C225.1 179.92 204.92 200.1 204.92 225C204.92 249.9 225.1 270.08 250 270.08C274.9 270.08 295.08 249.9 295.08 225C295.08 200.1 274.9 179.92 250 179.92Z" id="igvzBtl0Q"></path><path d="M348.15 10.6L348.15 10.6L348.15 10.6L348.15 10.6Z" id="d1COpGoKTv"></path></defs><g><g><g><use xlink:href="#aKqUYn2Jc" opacity="1" fill="#61dafb" fill-opacity="1"></use><g><use xlink:href="#aKqUYn2Jc" opacity="1" fill-opacity="0" stroke="#000000" stroke-width="1" stroke-opacity="0"></use></g></g><g><use xlink:href="#f1YH9EdrZe" opacity="1" fill="#61dafb" fill-opacity="1"></use><g><use xlink:href="#f1YH9EdrZe" opacity="1" fill-opacity="0" stroke="#000000" stroke-width="1" stroke-opacity="0"></use></g></g><g><use xlink:href="#igvzBtl0Q" opacity="1" fill="#61dafb" fill-opacity="1"></use><g><use xlink:href="#igvzBtl0Q" opacity="1" fill-opacity="0" stroke="#000000" stroke-width="1" stroke-opacity="0"></use></g></g><g><use xlink:href="#d1COpGoKTv" opacity="1" fill="#61dafb" fill-opacity="1"></use><g><use xlink:href="#d1COpGoKTv" opacity="1" fill-opacity="0" stroke="#000000" stroke-width="1" stroke-opacity="0"></use></g></g></g></g></svg>